<svg width="107" height="40" viewBox="0 0 107 40" fill="none" xmlns="http://www.w3.org/2000/svg">
<path d="M81.3332 19.5999C80.5126 17.2785 78.9977 15.2657 76.9942 13.8345C74.9906 12.4034 72.5953 11.6232 70.1332 11.5999C69.2017 11.5999 68.2831 11.8167 67.4499 12.2333C66.6168 12.6499 65.8921 13.2547 65.3332 13.9999C64.1332 15.3332 63.9999 17.5999 64.2665 19.3332V19.8665L64.7999 19.4665C65.1999 19.0665 66.1332 18.5332 67.1999 18.2665H69.0665C70.5332 18.3999 71.8665 19.0665 72.9332 20.1332C74.2665 21.4665 74.7999 23.1999 74.7999 25.1999C74.7999 27.3332 74.1332 28.9332 72.9332 30.2665C71.5999 31.5999 69.9999 32.1332 67.9999 32.1332C67.116 32.1559 66.2364 32.0026 65.4123 31.6821C64.5883 31.3616 63.8362 30.8804 63.1999 30.2665C61.1999 28.2665 61.4665 24.3999 61.4665 24.3999V1.3332L61.1999 1.06654L60.3999 0.933203C59.7332 0.666537 58.9332 0.533203 57.9999 0.533203C56.7999 0.533203 55.8665 0.79987 55.1999 1.3332C54.5332 1.7332 54.2665 2.5332 54.2665 3.59987V23.9999C54.2665 26.1332 54.5332 27.9999 54.9332 29.5999C55.3332 31.1999 55.9999 32.5332 56.7999 33.5999C58.1332 35.1999 59.5999 36.3999 61.5999 37.3332C65.5032 38.9922 69.8948 39.0876 73.8665 37.5999C75.5066 37.0229 77.0071 36.1075 78.2705 34.913C79.5338 33.7185 80.5319 32.2717 81.1999 30.6665C81.8665 29.0665 82.1332 27.1999 82.1332 25.1999C82.1332 23.0665 81.8665 21.1999 81.1999 19.5999H81.3332ZM37.9999 0.933203L35.5999 0.533203C34.2665 0.533203 33.4665 0.79987 32.6665 1.3332C32.1332 1.7332 31.7332 2.5332 31.7332 3.59987V37.8665H38.9332V1.3332L37.9999 1.06654V0.933203ZM46.7999 8.5332C47.3448 8.54357 47.886 8.44247 48.3905 8.23611C48.8949 8.02976 49.3518 7.72251 49.7332 7.3332C50.5332 6.66654 50.9332 5.7332 50.9332 4.66654C50.9332 3.60567 50.5118 2.58825 49.7616 1.83811C49.0115 1.08796 47.9941 0.666537 46.9332 0.666537C45.7332 0.666537 44.7999 0.933204 43.9999 1.7332C43.295 2.49309 42.9126 3.49692 42.9332 4.5332C42.9332 5.7332 43.1999 6.66654 43.9999 7.3332C44.7384 8.08686 45.7448 8.51818 46.7999 8.5332ZM47.0665 12.3999C45.8665 12.3999 44.9332 12.6665 44.2665 13.1999C43.5999 13.5999 43.3332 14.3999 43.3332 15.5999V37.8665H50.5332V13.0665L49.4665 12.7999C48.7999 12.5332 47.9999 12.3999 47.0665 12.3999ZM91.5999 0.933203C90.9332 0.666537 90.1332 0.533203 89.1999 0.533203C87.9999 0.533203 87.0665 0.79987 86.3999 1.3332C85.7332 1.7332 85.4665 2.5332 85.4665 3.59987V37.8665H92.6665V1.3332L91.5999 1.06654V0.933203ZM100.4 8.5332C101.455 8.51818 102.461 8.08686 103.2 7.3332C104 6.66654 104.4 5.7332 104.4 4.66654C104.4 3.60567 103.978 2.58825 103.228 1.83811C102.478 1.08796 101.461 0.666537 100.4 0.666537C99.1999 0.666537 98.2665 0.933204 97.4665 1.7332C96.7616 2.49309 96.3792 3.49692 96.3999 4.5332C96.3999 5.7332 96.7999 6.66654 97.4665 7.3332C97.8479 7.72251 98.3049 8.02976 98.8093 8.23611C99.3137 8.44247 99.855 8.54357 100.4 8.5332ZM100.533 12.3999C99.3332 12.3999 98.3999 12.6665 97.7332 13.1999C97.0665 13.5999 96.7999 14.3999 96.7999 15.5999V37.8665H104V13.0665L102.933 12.7999C102.267 12.5332 101.467 12.3999 100.533 12.3999ZM27.4665 19.5999C26.6459 17.2785 25.1311 15.2657 23.1275 13.8345C21.1239 12.4034 18.7286 11.6232 16.2665 11.5999C15.3577 11.6202 14.4653 11.8469 13.6569 12.2626C12.8485 12.6784 12.1451 13.2724 11.5999 13.9999C10.2665 15.3332 10.2665 17.5999 10.5332 19.3332V19.8665L11.0665 19.4665C11.4665 19.0665 12.3999 18.5332 13.4665 18.2665H15.3332C16.7999 18.3999 17.9999 19.0665 19.1999 20.1332C20.3999 21.4665 21.0665 23.1999 21.0665 25.1999C21.0665 27.3332 20.3999 28.9332 19.0665 30.2665C17.7332 31.5999 16.2665 31.9999 14.2665 31.9999C13.3826 32.0226 12.5031 31.8692 11.679 31.5488C10.8549 31.2283 10.1029 30.7471 9.46653 30.1332C7.46653 28.1332 7.59987 24.2665 7.59987 24.2665V1.3332L7.46653 1.06654L6.66653 0.933203C5.99987 0.666537 5.19987 0.533203 4.26654 0.533203C3.06654 0.533203 2.1332 0.79987 1.46653 1.3332C0.799866 1.7332 0.533203 2.5332 0.533203 3.59987V23.9999C0.533203 26.1332 0.666536 27.9999 1.19987 29.5999C1.59987 31.1999 2.26654 32.5332 2.9332 33.5999C4.26654 35.1999 5.86654 36.3999 7.86654 37.3332C11.7309 38.957 16.0679 39.0523 19.9999 37.5999C21.64 37.0229 23.1404 36.1075 24.4038 34.913C25.6672 33.7185 26.6652 32.2717 27.3332 30.6665C28.1332 29.0665 28.3999 27.1999 28.3999 25.1999C28.3999 23.0665 28.1332 21.1999 27.4665 19.5999Z" fill="#0072FF"/>
</svg>
