<svg width="128" height="40" viewBox="0 0 128 40" fill="none" xmlns="http://www.w3.org/2000/svg">
<g clip-path="url(#clip0_64_1946)">
<path fill-rule="evenodd" clip-rule="evenodd" d="M113.39 18.5789C114.102 16.2549 116.256 14.7057 118.77 14.7057C121.17 14.7057 123.454 16.3353 124.243 18.5744L124.298 18.7283H113.344L113.39 18.5789ZM126.735 21.9457C126.75 21.9463 126.75 21.9463 126.772 21.9465C126.794 21.9463 126.794 21.9463 126.816 21.9457C127.34 21.9216 127.755 21.4745 127.755 20.9304C127.755 20.9041 127.754 20.8813 127.752 20.8448C127.753 20.8381 127.753 20.8248 127.753 20.782C127.753 15.6497 123.729 11.4905 118.767 11.4905C113.805 11.4905 109.781 15.6497 109.781 20.782C109.781 21.1646 109.803 21.5462 109.848 21.9254L109.851 21.9457L109.865 22.0458C110.112 23.8925 110.9 25.5874 112.145 26.9589C112.145 26.9589 112.145 26.9595 112.152 26.9667C113.531 28.4851 115.405 29.52 117.483 29.907L117.51 29.9122V29.9095L117.645 29.932C117.714 29.9438 117.787 29.9554 117.885 29.9706C120.62 30.2995 123.046 29.9053 125.1 28.8708C125.606 28.616 126.061 28.3348 126.455 28.0377C126.581 27.942 126.696 27.8495 126.794 27.7628C126.845 27.7181 126.886 27.6806 126.907 27.6589C127.37 27.1814 127.399 27.0121 127.12 26.5762C126.812 26.0863 126.54 25.6689 126.308 25.3234C126.226 25.2024 126.155 25.0993 126.096 25.0137C126.063 24.9667 126.063 24.9667 126.042 24.937C126.034 24.9254 126.034 24.9254 126.028 24.918L126.025 24.9142C125.772 24.5991 125.599 24.5702 125.318 24.8183C125.288 24.8449 125.187 24.9222 125.169 24.9414C123.193 26.6962 120.495 27.2607 117.8 26.6968C117.298 26.5621 116.829 26.3909 116.397 26.1843C114.708 25.3377 113.512 23.8294 113.167 22.0835L113.14 21.9456L126.735 21.9457ZM92.0074 18.5789C92.7199 16.2549 94.8741 14.7057 97.3879 14.7057C99.7873 14.7057 102.072 16.3353 102.861 18.5744L102.915 18.7283H91.9615L92.0074 18.5789ZM105.353 21.9457C105.368 21.9463 105.368 21.9463 105.39 21.9465C105.411 21.9463 105.411 21.9463 105.433 21.9457C105.958 21.9216 106.373 21.4745 106.373 20.9304C106.373 20.9041 106.372 20.8813 106.37 20.8448C106.37 20.8381 106.37 20.8248 106.37 20.782C106.37 15.6497 102.347 11.4905 97.3847 11.4905C92.4228 11.4905 88.399 15.6497 88.399 20.782C88.399 21.1646 88.4216 21.5462 88.4662 21.9254L88.4692 21.9457L88.4831 22.0458C88.7302 23.8925 89.5182 25.5874 90.7626 26.9589C90.7626 26.9589 90.7632 26.9595 90.7695 26.9667C92.1493 28.4851 94.0227 29.52 96.1004 29.907L96.1276 29.9122V29.9095L96.2625 29.932C96.3319 29.9438 96.405 29.9554 96.5033 29.9706C99.238 30.2995 101.664 29.9053 103.718 28.8708C104.224 28.616 104.678 28.3348 105.072 28.0377C105.199 27.942 105.313 27.8495 105.412 27.7628C105.463 27.7181 105.503 27.6806 105.525 27.6589C105.988 27.1814 106.017 27.0121 105.737 26.5762C105.43 26.0863 105.158 25.6689 104.925 25.3234C104.844 25.2024 104.773 25.0993 104.714 25.0137C104.68 24.9667 104.68 24.9667 104.66 24.937C104.652 24.9254 104.652 24.9254 104.646 24.918L104.644 24.9142C104.39 24.5991 104.217 24.5702 103.936 24.8183C103.906 24.8449 103.806 24.9222 103.788 24.9414C101.812 26.6962 99.1133 27.2607 96.4187 26.6968C95.9168 26.5621 95.4475 26.3909 95.0153 26.1843C93.327 25.3377 92.131 23.8294 91.7859 22.0835L91.7585 21.9456L105.353 21.9457ZM75.6887 27.063C72.3467 27.063 69.6133 24.4133 69.5295 21.0928V20.7803C69.6125 17.465 72.3467 14.8149 75.6887 14.8149C79.0912 14.8149 81.8495 17.5567 81.8495 20.939C81.8495 24.3212 79.0912 27.063 75.6887 27.063ZM75.6907 11.5661C73.4987 11.5661 71.4043 12.3126 69.721 13.682L69.5297 13.8375V12.1237C69.5297 11.6667 69.4315 11.5661 68.9689 11.5661H66.8177C66.3491 11.5661 66.2566 11.6592 66.2566 12.1237V39.4427C66.2566 39.8914 66.3613 40.0003 66.8177 40.0003H68.9689C69.427 40.0003 69.5297 39.8937 69.5297 39.4427V28.0498L69.721 28.2053C71.4045 29.5749 73.4989 30.3215 75.6907 30.3215C80.9009 30.3215 85.1246 26.1229 85.1246 20.9437C85.1246 15.7647 80.9009 11.5661 75.6907 11.5661ZM53.5356 26.8537C50.1262 26.8537 47.3624 24.136 47.3624 20.7825C47.3624 17.429 50.1264 14.7111 53.5356 14.7111C56.9444 14.7111 59.7084 17.429 59.7084 20.7825C59.7084 24.1358 56.9446 26.8537 53.5356 26.8537ZM53.5376 11.4905C48.3171 11.4905 44.0857 15.6529 44.0857 20.7872C44.0857 25.9212 48.3171 30.0838 53.5376 30.0838C58.7579 30.0838 62.9889 25.9212 62.9889 20.7872C62.9889 15.6529 58.7581 11.4905 53.5376 11.4905ZM32.4676 11.697C30.5619 11.697 28.7178 12.3097 27.1879 13.4421L27.0019 13.5797V0.892266C27.0019 0.471741 26.8639 0.334473 26.4434 0.334473H24.1916C23.7369 0.334473 23.633 0.443224 23.633 0.892266V29.8355C23.633 30.2737 23.7452 30.3937 24.1916 30.3937H26.4434C26.8611 30.3937 27.0019 30.2496 27.0019 29.8355V20.3818C27.0253 17.4057 29.466 15.0037 32.4676 15.0037C35.4768 15.0037 37.9203 17.4174 37.9331 20.4033V29.8355C37.9331 30.3143 38.0127 30.3935 38.4917 30.3935H40.738C41.2142 30.3935 41.2967 30.312 41.2967 29.8355V20.3756C41.2788 15.6036 37.2996 11.697 32.4676 11.697ZM1.09043 25.1436L1.08519 25.1517C0.764099 25.6381 0.629625 25.8427 0.554471 25.9602C0.301355 26.337 0.33281 26.5049 0.719346 26.8316C1.6214 27.5589 2.78101 28.3226 3.56337 28.7052C5.74009 29.7696 8.09117 30.3321 10.5827 30.383C12.1921 30.4642 14.2135 30.0815 15.7187 29.4102C18.4436 28.1946 20.1793 25.8253 20.4835 22.9071C20.9763 18.1786 17.8996 15.2227 9.97488 12.8405L9.9728 12.8399C6.28055 11.6491 4.54611 10.066 4.54548 7.85583C4.6542 5.41301 6.91915 3.58804 9.97492 3.47418C12.4364 3.48031 14.6127 4.13403 16.751 5.51012C17.2019 5.78364 17.4099 5.73317 17.713 5.33985C17.7478 5.28176 17.8447 5.14097 18.2501 4.55894L18.2514 4.55706C18.6299 4.01341 18.7544 3.83191 18.7855 3.77827C19.0409 3.29759 19.0044 3.11228 18.5433 2.78532C18.0892 2.46006 16.8101 1.7945 16.0786 1.50253C14.0442 0.690869 11.941 0.296699 9.84764 0.33741C5.08382 0.440882 1.36855 3.5391 1.12367 7.60354C0.968293 10.5393 2.45829 12.9001 5.57147 14.6453C6.44418 15.1061 9.63527 16.3123 11.1246 16.7485C15.3596 17.9887 17.5676 20.2701 17.1114 22.9619C16.697 25.4074 14.1346 27.0339 10.5388 27.1453C7.93121 27.091 5.304 26.1354 3.02278 24.4211C3.01139 24.4128 2.95354 24.3698 2.84693 24.2903C2.69705 24.1785 2.69704 24.1785 2.67466 24.1618C2.2096 23.8407 1.93601 23.8675 1.65207 24.2905C1.61787 24.3428 1.26459 24.8798 1.09043 25.1436Z" fill="#EE4D2D"/>
</g>
<defs>
<clipPath id="clip0_64_1946">
<rect width="127.805" height="40" fill="white"/>
</clipPath>
</defs>
</svg>
