<svg width="184" height="40" viewBox="0 0 184 40" fill="none" xmlns="http://www.w3.org/2000/svg">
<g clip-path="url(#clip0_64_1944)">
<path fill-rule="evenodd" clip-rule="evenodd" d="M98.3449 28.046C96.3463 30.0768 93.9551 31.0975 91.1863 31.0975C88.9454 31.0975 87.041 30.6401 85.099 29.5094V24.852C86.6626 25.9136 88.6268 26.9246 90.5656 26.9246C94.6079 26.9246 97.0116 24.1393 97.0116 20.1936C97.0116 16.2432 94.5233 13.3752 90.4783 13.3752C88.6723 13.3752 87.2084 14.0253 86.0649 15.3283C84.8392 16.7398 84.2056 18.7572 84.2056 21.4248V39.8064H83.9011C81.673 39.8064 79.8684 37.9986 79.8684 35.7687V20.7343C79.8684 14.3526 83.7636 9.20322 90.4569 9.20322C93.7627 9.20322 96.4477 10.3352 98.4845 12.6087C100.399 14.7333 101.347 17.4271 101.347 20.6639C101.347 23.5467 100.346 26.011 98.3461 28.0432L98.3449 28.046ZM145.287 27.8903C143.297 30.03 140.734 31.0976 137.628 31.0976C134.349 31.0976 131.678 29.9657 129.641 27.6921C127.728 25.5413 126.779 22.8461 126.779 19.6369C126.779 13.9542 131.16 9.20474 136.927 9.20474C139.15 9.20474 141.081 9.67462 143.032 10.7459V15.4493C141.469 14.3877 139.505 13.3767 137.566 13.3767C133.523 13.3767 131.115 16.1615 131.115 20.1123C131.115 24.007 133.662 26.9307 137.648 26.9307C139.453 26.9307 140.939 26.2535 142.127 24.8898C143.309 23.5344 143.922 21.5431 143.922 18.8668V4.23692C143.922 2.00611 145.728 0.199219 147.955 0.199219H148.26V19.5555C148.26 22.9643 147.274 25.7532 145.286 27.8958L145.287 27.8903ZM157.536 7.14083C157.081 7.65117 156.428 7.88611 155.632 7.88611C154.143 7.88611 153.077 6.7868 153.077 5.30726C153.077 3.79324 154.123 2.77117 155.632 2.77117C157.084 2.77117 158.186 3.84887 158.186 5.30726C158.186 6.02864 157.975 6.64703 157.536 7.14083ZM179.573 18.865C179.573 17.1528 178.926 15.7978 177.626 14.7707C176.456 13.8466 174.994 13.3767 173.214 13.3767C169.288 13.3767 166.768 16.4493 166.768 20.2365C166.768 23.8829 169.44 26.9261 173.173 26.9261C175.77 26.9261 177.158 25.4075 178.64 23.5155V28.9684C177.885 29.5344 177.018 30.1514 176.132 30.5137C175.197 30.9044 174.081 31.0944 172.791 31.0944C166.548 31.0944 162.433 25.9174 162.433 19.9358C162.433 16.8636 163.386 14.322 165.304 12.345C167.34 10.2461 170.013 9.20519 173.281 9.20519C179.479 9.20519 183.916 12.7689 183.916 19.2098V30.6719H183.613C181.384 30.6719 179.578 28.864 179.578 26.6337L179.573 18.865ZM120.216 17.6351C119.668 15.9376 118.981 15.1027 117.401 14.219C113.642 12.116 109.943 13.9064 108.224 17.6185L120.216 17.6351ZM116.907 31.0328C114.136 31.6222 111.417 31.1678 108.764 29.6834C106.177 28.2369 104.444 26.0857 103.578 23.242C101.822 17.4948 105.419 11.0857 111.206 9.53623C114.073 8.76749 116.824 9.11545 119.436 10.5767C123.774 13.0052 125.357 16.7606 125.077 21.602L107.601 21.567C107.859 23.5408 109.081 25.0852 110.799 26.0456C112.54 27.0199 114.142 27.253 115.626 26.7914C117.276 26.2728 118.614 24.9247 119.703 23.67L123.264 26.2677C121.812 28.87 119.834 30.4102 116.905 31.0355L116.907 31.0328ZM153.481 9.63508H157.819V30.6696H157.513C155.288 30.6696 153.482 28.8617 153.482 26.6314L153.481 9.63508ZM6.35504 30.6696C2.11274 30.6696 0.00561523 27.7804 0.00561523 23.7454V8.43968C0.00561523 6.20933 1.81159 4.40198 4.03918 4.40198H4.34373V9.63876H11.6725V13.8098H4.34373V24.2328C4.34373 26.0047 5.13362 26.5027 6.82465 26.5027H11.6706V30.6732L6.35504 30.6696ZM31.5458 28.0112C29.4033 30.0682 26.8286 31.0985 23.8355 31.0985C20.8714 31.0985 18.3091 30.0668 16.1665 28.0112C14.0166 25.9468 12.9449 23.3215 12.9449 20.1537C12.9449 13.9744 17.6576 9.20657 23.8323 9.20657C26.7973 9.20657 29.3633 10.2461 31.5196 12.3169C33.6833 14.3942 34.7638 17.0158 34.7638 20.1514C34.7638 23.3178 33.6907 25.9445 31.5408 28.0089L31.5458 28.0112ZM51.8263 14.6962C51.19 15.7647 50.6967 16.5307 50.3495 16.9937C49.9669 17.4971 49.5891 17.899 49.2148 18.1771C52.2291 19.1519 53.3518 21.2429 53.3518 24.3565V30.6691H53.0473C50.8201 30.6691 49.0137 28.8613 49.0137 26.6309V24.7868C49.0137 22.7698 48.1103 21.4015 45.976 21.4015H42.0372V30.6705H41.7326C39.5055 30.6705 37.7009 28.8627 37.7009 26.6323V4.23692C37.7009 2.00611 39.505 0.199219 41.7326 0.199219H42.0372V17.1923H43.319C44.7277 17.1923 45.6532 16.71 46.1847 15.7974L49.828 9.64106L54.7705 9.63614L51.8263 14.6962ZM74.2171 28.0112C72.0737 30.0682 69.4999 31.0985 66.5068 31.0985C63.5431 31.0985 60.9803 30.0668 58.8378 28.0112C56.6879 25.9468 55.6162 23.3215 55.6162 20.1537C55.6162 13.9744 60.3288 9.20657 66.5036 9.20657C69.4695 9.20657 72.0346 10.2461 74.1909 12.3169C76.3546 14.3942 77.4346 17.0158 77.4346 20.1514C77.4346 23.3178 76.3619 25.9445 74.2121 28.0089L74.2171 28.0112ZM71.0865 15.2571C69.8907 14.0052 68.373 13.3767 66.5063 13.3767C62.515 13.3767 60.1247 16.2903 60.1247 20.1537C60.1247 23.962 62.5707 26.9307 66.5063 26.9307C70.4424 26.9307 72.8879 23.9638 72.8879 20.1537C72.8879 18.1316 72.2806 16.5091 71.0865 15.2571ZM28.4199 15.2571C27.2245 14.0052 25.7063 13.3767 23.8401 13.3767C19.8488 13.3767 17.4585 16.2903 17.4585 20.1537C17.4585 23.962 19.9045 26.9307 23.8401 26.9307C27.7757 26.9307 30.2217 23.9638 30.2217 20.1537C30.2217 18.1316 29.6153 16.5091 28.4208 15.2571H28.4199Z" fill="#42B549"/>
</g>
<defs>
<clipPath id="clip0_64_1944">
<rect width="183.908" height="40" fill="white"/>
</clipPath>
</defs>
</svg>
