<?xml version="1.0" standalone="no"?>
<!DOCTYPE svg PUBLIC "-//W3C//DTD SVG 1.1//EN" "http://www.w3.org/Graphics/SVG/1.1/DTD/svg11.dtd">
<svg xmlns="http://www.w3.org/2000/svg">
<defs >
<font id="PlusJakartaSans" horiz-adv-x="585" ><font-face
    font-family="Plus Jakarta Sans ExtraLight"
    units-per-em="1000"
    panose-1="0 0 0 0 0 0 0 0 0 0"
    ascent="1038"
    descent="-222"
    alphabetic="0" />
<glyph unicode=" " horiz-adv-x="160" />
<glyph unicode="!" horiz-adv-x="255" d="M105 208L103 745H153L150 208H105ZM101 0V90H156V0H101Z" />
<glyph unicode="&quot;" horiz-adv-x="346" d="M93 560L83 745H138L128 560H93ZM218 560L208 745H263L253 560H218Z" />
<glyph unicode="#" horiz-adv-x="742" d="M95 0L156 213H36V258H169L235 488H115V533H248L309 745H361L300 533H534L596 745H648L586 533H706V487H574L507 258H627V213H494L433 0H381L442 213H208L147 0H95ZM221 258H455L522 488H287L221 258Z" />
<glyph unicode="$" horiz-adv-x="639" d="M332 -12Q261 -12 207 14T117 84T66 174L111 188Q140 112 196 72T331 31Q384 31 425 49T490 102T514 184Q514 245 479 278T396 325L257 365Q171 390 134 443T97 563Q97 621 125 664T201 732T309 757Q371 757 420 733T504
669T553 583L508 569Q482 640 429 677T310 714Q264 714 227 696T167 643T145 562Q145 507 174 471T279 412L405 374Q478 352 520 303T562 183Q562 125 532 82T450 13T332 -12ZM306 -100V845H351V-100H306Z" />
<glyph unicode="%" horiz-adv-x="928" d="M124 0L739 745H800L185 0H124ZM237 385Q187 385 145 410T78 477T52 571Q52 623 77 665T145 732T237 757Q287 757 328 732T395 665T420 571Q420 520 395 478T329 410T237 385ZM237 428Q277 428 308 449T357 503T375 571Q375
607 357 639T308 693T237 714Q197 714 166 694T116 640T97 571Q97 535 115 503T165 449T237 428ZM693 -12Q643 -12 601 13T534 80T508 174Q508 226 533 268T601 335T693 360Q743 360 784 335T851 268T876 174Q876 122 851 80T785 13T693 -12ZM693 31Q733 31 764
52T813 106T831 174Q831 210 813 242T764 296T693 317Q653 317 622 297T572 243T553 174Q553 138 571 106T621 52T693 31Z" />
<glyph unicode="&amp;" horiz-adv-x="722" d="M250 -12Q195 -12 151 9T82 70T56 162Q56 203 70 235T109 296T163 349T226 398L254 420Q294 450 324 476T371 530T388 594Q388 645 355 677T276 709Q227 709 196 676T164 593Q164 558 180 527T219 470T264 422L685
0H615L228 386Q206 408 180 438T134 508T114 593Q114 640 135 677T193 735T276 757Q320 757 357 736T416 679T438 594Q438 546 416 509T360 441T289 383L262 362Q217 328 182 298T126 236T106 162Q106 104 146 70T250 36Q295 36 328 52T387 93T431 147T467 201L582
373H642L509 173Q493 148 471 117T418 56T347 7T250 -12Z" />
<glyph unicode="&apos;" horiz-adv-x="221" d="M93 560L83 745H138L128 560H93Z" />
<glyph unicode="(" horiz-adv-x="269" d="M198 -130Q125 -43 88 72T50 308Q50 436 88 548T198 745H249Q177 650 139 537T100 308Q100 196 138 82T249 -130H198Z" />
<glyph unicode=")" horiz-adv-x="269" d="M20 -130Q92 -32 130 82T169 308Q169 424 131 537T20 745H71Q143 660 181 548T219 308Q219 187 182 72T71 -130H20Z" />
<glyph unicode="*" horiz-adv-x="459" d="M133 398L93 427L188 552L52 598L66 645L204 600V745H254V600L391 645L407 598L272 552L366 427L326 398L229 523L133 398Z" />
<glyph unicode="+" horiz-adv-x="596" d="M276 0V228H48V273H276V500H321V273H548V228H321V0H276Z" />
<glyph unicode="," horiz-adv-x="248" d="M81 -123V-89Q102 -82 113 -61T124 0H101V90H156V20Q156 -41 136 -76T81 -123Z" />
<glyph unicode="-" horiz-adv-x="468" d="M74 241V286H394V241H74Z" />
<glyph unicode="." horiz-adv-x="261" d="M103 0V90H158V0H103Z" />
<glyph unicode="/" horiz-adv-x="397" d="M2 -120L340 705H395L57 -120H2Z" />
<glyph unicode="0" horiz-adv-x="714" d="M358 -12Q273 -12 209 36T108 172T72 373Q72 488 108 574T208 708T357 757Q442 757 506 709T606 575T642 373Q642 258 607 172T507 37T358 -12ZM358 36Q432 36 484 79T564 198T592 373Q592 473 565 548T485 666T357 709Q283
709 230 667T150 548T122 373Q122 274 150 198T231 79T358 36Z" />
<glyph unicode="1" horiz-adv-x="338" d="M178 0V700H38V745H228V0H178Z" />
<glyph unicode="2" horiz-adv-x="578" d="M56 0V30L266 260Q329 329 371 376T435 465T457 558Q457 630 413 671T289 712Q213 712 163 669T95 546L50 556Q64 621 98 666T181 734T289 757Q350 757 399 733T478 664T507 558Q507 509 486 465T427 373T334 267L130
45H520V0H56Z" />
<glyph unicode="3" horiz-adv-x="599" d="M293 -12Q232 -12 181 11T96 80T48 189L94 201Q110 124 160 79T292 33Q352 33 396 57T465 124T490 224Q490 285 464 324T393 384T294 404Q285 404 273 403T249 400L243 420L451 700H75V745H515V715L303 431L304 445Q364
448 417 422T504 345T538 223Q538 158 508 105T422 20T293 -12Z" />
<glyph unicode="4" horiz-adv-x="606" d="M432 0V176H43V216L437 745H482V221H563V176H482V0H432ZM89 203L82 221H432V696L455 691L89 203Z" />
<glyph unicode="5" horiz-adv-x="608" d="M304 -12Q241 -12 189 12T103 82T56 189L102 201Q119 121 172 77T304 33Q362 33 405 58T472 129T496 232Q496 287 471 330T402 399T305 424Q247 424 201 398T134 336L91 346L145 745H515V700H161L185 709L142 388L131
394Q156 430 204 450T307 471Q375 471 429 440T514 354T546 232Q546 161 515 106T430 20T304 -12Z" />
<glyph unicode="6" horiz-adv-x="587" d="M294 -12Q227 -12 174 19T91 106T60 233Q60 281 72 322T108 403T164 486L360 745H419L137 366H120Q143 403 173 423T237 451T300 459Q364 459 416 430T499 348T530 225Q530 156 499 103T414 19T294 -12ZM295 33Q348 33
389 57T455 124T479 222Q479 278 455 321T390 389T295 414Q243 414 201 390T135 322T111 222Q111 167 135 124T202 57T295 33Z" />
<glyph unicode="7" horiz-adv-x="523" d="M74 0L423 700H41V745H481V705L129 0H74Z" />
<glyph unicode="8" horiz-adv-x="606" d="M303 -12Q234 -12 180 17T95 98T63 214Q63 288 105 345T216 424L220 409Q166 432 137 474T107 571Q107 624 133 666T203 732T303 757Q359 757 403 733T472 667T498 571Q498 517 471 476T388 409L390 424Q459 403 501 346T543
214Q543 149 512 98T426 18T303 -12ZM303 33Q360 33 402 55T469 118T493 212Q493 266 469 306T403 369T303 392Q246 392 204 370T137 307T113 212Q113 159 137 119T203 56T303 33ZM303 438Q345 438 377 456T429 505T448 576Q448 615 429 645T378 694T303 712Q262
712 229 694T176 646T157 576Q157 536 176 505T228 456T303 438Z" />
<glyph unicode="9" horiz-adv-x="587" d="M168 0L450 379H467Q445 343 414 323T350 294T287 286Q224 286 172 315T88 397T57 520Q57 590 88 643T173 726T293 757Q360 757 413 726T496 639T527 512Q527 465 515 424T480 343T423 259L227 0H168ZM292 331Q345 331
386 355T452 423T476 523Q476 579 452 621T386 688T292 712Q239 712 198 688T132 621T108 523Q108 467 132 424T197 356T292 331Z" />
<glyph unicode=":" horiz-adv-x="261" d="M103 0V90H158V0H103ZM103 436V526H158V436H103Z" />
<glyph unicode=";" horiz-adv-x="281" d="M103 -123V-94Q124 -87 137 -64T151 0H123V90H178V20Q178 -41 158 -76T103 -123ZM123 436V526H178V436H123Z" />
<glyph unicode="&lt;" horiz-adv-x="596" d="M533 50L148 245V281L533 476V426L192 252V274L533 100V50Z" />
<glyph unicode="=" horiz-adv-x="596" d="M73 346V391H523V346H73ZM73 111V156H523V111H73Z" />
<glyph unicode="&gt;" horiz-adv-x="596" d="M63 50V100L404 274V252L63 426V476L448 281V245L63 50Z" />
<glyph unicode="?" horiz-adv-x="474" d="M160 208V212Q160 258 176 293T218 357T274 413Q315 452 347 494T380 592Q380 623 364 650T318 695T244 713Q181 713 138 675T79 567L35 576Q45 632 74 672T147 735T244 757Q297 757 339 734T405 674T430 590Q430 542
409 505T357 437T295 374Q260 338 233 300T205 212V208H160ZM156 0V90H211V0H156Z" />
<glyph unicode="@" horiz-adv-x="926" d="M483 -205Q397 -205 323 -174T194 -86T108 44T77 205Q77 291 108 365T194 494T324 581T483 612Q575 612 649 579T777 489T858 360T887 209Q887 143 867 96T814 25T739 0Q707 0 680 13T636 51T614 105L629 107Q614 70 590
46T536 11T471 0Q414 0 369 27T297 103T270 211Q270 270 296 318T369 394T471 422Q520 422 564 398T629 324L614 311V412H662V129Q662 92 682 69T741 45Q783 45 811 87T839 210Q839 285 813 350T739 464T626 540T483 567Q404 567 338 539T225 462T151 348T125 210Q125
133 151 66T226 -52T340 -131T488 -160Q534 -160 576 -150T654 -117L675 -158Q592 -205 483 -205ZM469 45Q512 45 544 66T595 125T614 211Q614 285 574 331T470 377Q428 377 394 357T339 299T318 211Q318 163 338 126T392 67T469 45Z" />
<glyph unicode="A" horiz-adv-x="644" d="M22 0L298 745H346L622 0H567L495 197H149L77 0H22ZM165 242H479L310 704H334L165 242Z" />
<glyph unicode="B" horiz-adv-x="695" d="M99 0V745H400Q460 745 504 721T574 654T599 557Q599 499 568 454T482 392V401Q527 390 560 362T611 295T629 208Q629 114 570 57T400 0H99ZM149 45H391Q479 45 529 89T579 207Q579 281 531 325T401 370H149V45ZM149 415H394Q465
415 507 454T549 558Q549 623 509 661T394 700H149V415Z" />
<glyph unicode="C" horiz-adv-x="788" d="M430 -12Q354 -12 290 16T178 97T104 219T77 373Q77 456 103 526T178 648T290 728T430 757Q504 757 563 730T663 661T722 576L675 555Q642 625 579 667T430 709Q341 709 273 667T166 549T127 373Q127 273 165 197T272
79T430 36Q515 36 578 78T675 190L722 169Q704 126 663 85T563 16T430 -12Z" />
<glyph unicode="D" horiz-adv-x="744" d="M99 0V745H337Q445 745 524 700T646 571T689 373Q689 260 646 176T524 46T337 0H99ZM149 45H335Q426 45 494 86T601 201T639 373Q639 471 601 544T495 659T335 700H149V45Z" />
<glyph unicode="E" horiz-adv-x="614" d="M99 0V745H559V700H149V396H539V351H149V45H559V0H99Z" />
<glyph unicode="F" horiz-adv-x="593" d="M99 0V745H549V700H149V396H509V351H149V0H99Z" />
<glyph unicode="G" horiz-adv-x="834" d="M433 -12Q355 -12 290 16T177 96T103 218T77 372Q77 456 103 526T178 648T291 728T434 757Q511 757 572 730T674 661T733 576L686 555Q653 625 589 667T434 709Q345 709 276 667T167 548T127 372Q127 272 166 196T275
78T433 36Q515 36 579 73T680 174T717 319V349L739 323H434V368H767V319Q767 252 743 192T674 86T568 14T433 -12Z" />
<glyph unicode="H" horiz-adv-x="738" d="M99 0V745H149V402H589V745H639V0H589V357H149V0H99Z" />
<glyph unicode="I" horiz-adv-x="248" d="M99 0V745H149V0H99Z" />
<glyph unicode="J" horiz-adv-x="381" d="M66 0V50H104Q164 50 198 86T232 194V745H282V191Q282 132 260 89T198 23T104 0H66Z" />
<glyph unicode="K" horiz-adv-x="651" d="M99 0V745H149V285L130 294L539 745H606L303 409L305 444L629 0H567L283 390L149 241V0H99Z" />
<glyph unicode="L" horiz-adv-x="533" d="M99 0V745H149V45H489V0H99Z" />
<glyph unicode="M" horiz-adv-x="818" d="M99 0V745H139L415 323H400L679 745H719V0H669V662L675 654L410 246H408L141 654L149 662V0H99Z" />
<glyph unicode="N" horiz-adv-x="738" d="M99 0V745H139L605 78H589V745H639V0H599L130 671H149V0H99Z" />
<glyph unicode="O" horiz-adv-x="884" d="M442 -12Q367 -12 301 16T184 95T106 217T77 373Q77 458 105 528T184 649T301 729T442 757Q517 757 583 729T699 650T778 528T807 373Q807 288 779 218T700 96T584 16T442 -12ZM442 36Q512 36 570 62T670 136T734 244T757
373Q757 440 735 500T671 608T571 682T442 709Q372 709 314 682T214 608T150 501T127 373Q127 305 149 244T214 136T314 63T442 36Z" />
<glyph unicode="P" horiz-adv-x="645" d="M99 0V745H343Q413 745 466 717T549 639T579 522Q579 456 549 406T466 328T343 300H149V0H99ZM149 345H343Q398 345 439 367T505 430T529 523Q529 576 506 615T440 677T343 700H149V345Z" />
<glyph unicode="Q" horiz-adv-x="884" d="M442 -12Q367 -12 301 16T184 95T106 217T77 373Q77 458 105 528T184 649T301 729T442 757Q517 757 583 729T699 650T778 528T807 373Q807 288 779 218T700 96T584 16T442 -12ZM442 36Q512 36 570 62T670 136T734 244T757
373Q757 440 735 500T671 608T571 682T442 709Q372 709 314 682T214 608T150 501T127 373Q127 305 149 244T214 136T314 63T442 36ZM674 -90L424 298H483L733 -90H674Z" />
<glyph unicode="R" horiz-adv-x="635" d="M99 0V745H343Q413 745 466 717T549 639T579 522Q579 441 534 384T413 308L591 0H532L343 331L397 300H149V0H99ZM149 345H343Q398 345 439 367T505 430T529 523Q529 576 506 615T440 677T343 700H149V345Z" />
<glyph unicode="S" horiz-adv-x="639" d="M332 -12Q261 -12 207 14T117 84T66 174L111 188Q140 112 196 72T331 31Q384 31 425 49T490 102T514 184Q514 245 479 278T396 325L257 365Q171 390 134 443T97 563Q97 621 125 664T201 732T309 757Q371 757 420 733T504
669T553 583L508 569Q482 640 429 677T310 714Q264 714 227 696T167 643T145 562Q145 507 174 471T279 412L405 374Q478 352 520 303T562 183Q562 125 532 82T450 13T332 -12Z" />
<glyph unicode="T" horiz-adv-x="514" d="M233 0V700H22V745H492V700H283V0H233Z" />
<glyph unicode="U" horiz-adv-x="690" d="M345 -12Q271 -12 215 21T127 113T95 251V745H145V247Q145 184 170 136T240 61T345 33Q405 33 450 60T520 136T545 247V745H595V251Q595 172 564 113T476 21T345 -12Z" />
<glyph unicode="V" horiz-adv-x="654" d="M303 0L22 745H77L338 46H317L577 745H632L351 0H303Z" />
<glyph unicode="W" horiz-adv-x="988" d="M245 0L22 745H76L282 44L256 45L470 745H518L732 45L706 44L912 745H966L743 0H695L480 706H508L293 0H245Z" />
<glyph unicode="X" horiz-adv-x="589" d="M22 0L262 382L32 745H94L298 421H291L494 745H555L325 382L567 0H505L290 343H298L84 0H22Z" />
<glyph unicode="Y" horiz-adv-x="624" d="M287 0V333L22 745H79L326 369H300L545 745H602L337 333V0H287Z" />
<glyph unicode="Z" horiz-adv-x="606" d="M33 0V30L495 700H60V745H563V715L102 45H573V0H33Z" />
<glyph unicode="[" horiz-adv-x="281" d="M88 -130V745H258V700H138V-85H258V-130H88Z" />
<glyph unicode="\" horiz-adv-x="397" d="M340 -120L2 705H57L395 -120H340Z" />
<glyph unicode="]" horiz-adv-x="281" d="M23 -130V-85H143V700H23V745H193V-130H23Z" />
<glyph unicode="^" horiz-adv-x="596" d="M113 428L280 745H316L483 428H431L281 713H315L165 428H113Z" />
<glyph unicode="_" horiz-adv-x="548" d="M74 -45V0H474V-45H74Z" />
<glyph unicode="`" horiz-adv-x="330" d="M211 640L103 790H164L256 640H211Z" />
<glyph unicode="a" horiz-adv-x="574" d="M237 -12Q189 -12 151 6T89 58T66 136Q66 172 82 205T136 264T237 299L457 336V293L252 259Q174 246 143 213T112 138Q112 88 149 59T241 30Q302 30 346 59T416 135T441 238V365Q441 424 401 459T293 495Q242 495 199
470T132 404L92 425Q107 455 136 480T206 522T293 538Q350 538 393 516T461 455T486 365V0H441V115H445Q432 82 402 53T330 6T237 -12Z" />
<glyph unicode="b" horiz-adv-x="674" d="M349 -12Q273 -12 214 27T125 132L133 149V0H88V757H133V377L125 394Q154 459 213 498T349 538Q423 538 481 502T574 404T608 263Q608 185 574 123T482 25T349 -12ZM349 33Q410 33 457 63T532 145T560 263Q560 329 533
381T458 463T349 493Q289 493 241 463T164 382T136 263Q136 197 164 145T240 63T349 33Z" />
<glyph unicode="c" horiz-adv-x="607" d="M328 -12Q255 -12 196 24T101 122T66 263Q66 342 101 404T195 502T328 538Q377 538 418 522T491 478T541 414L503 393Q475 443 430 469T328 496Q267 496 218 467T140 386T111 263Q111 193 140 141T218 59T328 30Q385 30
430 57T503 133L541 113Q523 78 492 50T419 5T328 -12Z" />
<glyph unicode="d" horiz-adv-x="674" d="M325 -12Q252 -12 193 24T100 123T66 263Q66 341 100 403T193 502T325 538Q401 538 461 499T549 394L541 377V757H586V0H541V149L549 132Q521 67 461 28T325 -12ZM325 33Q386 33 434 63T510 145T538 263Q538 330 510 381T434
463T325 493Q264 493 217 463T142 381T114 263Q114 197 141 145T216 63T325 33Z" />
<glyph unicode="e" horiz-adv-x="627" d="M331 -12Q256 -12 196 24T101 123T66 263Q66 341 100 403T191 502T321 538Q372 538 416 519T492 466T543 387T561 288Q561 278 561 269T558 249H89V289H532L515 276Q518 338 493 387T423 466T321 496Q262 496 215 465T139
382T111 263Q111 197 140 144T218 61T331 30Q388 30 434 57T508 133L546 113Q527 75 494 47T420 3T331 -12Z" />
<glyph unicode="f" horiz-adv-x="387" d="M143 0V486H34V526H143V579Q143 635 163 675T220 736T305 757Q317 757 327 756T344 752V711Q336 713 326 713T308 714Q252 714 220 679T188 579V526H321V486H188V0H143Z" />
<glyph unicode="g" horiz-adv-x="664" d="M331 -220Q280 -220 237 -204T160 -159T108 -95L146 -73Q175 -122 223 -150T331 -178Q381 -178 426 -158T501 -94T531 18V169L541 152Q513 87 455 48T320 8Q247 8 190 44T99 140T66 273Q66 346 99 406T189 502T320 538Q396
538 454 499T541 394L531 377V526H576V18Q576 -51 545 -105T458 -189T331 -220ZM320 53Q381 53 427 82T501 162T528 273Q528 335 501 384T428 463T320 493Q259 493 213 464T140 384T114 273Q114 212 140 162T212 83T320 53Z" />
<glyph unicode="h" horiz-adv-x="570" d="M88 0V757H133V415L121 420Q137 473 184 505T295 538Q348 538 393 514T465 447T493 345V0H448V340Q448 388 427 422T371 476T291 495Q241 495 206 472T152 409T133 320V0H88Z" />
<glyph unicode="i" horiz-adv-x="221" d="M88 0V526H133V0H88ZM88 635V745H133V635H88Z" />
<glyph unicode="j" horiz-adv-x="221" d="M-18 -220Q-30 -220 -39 -219T-57 -215V-174Q-40 -177 -21 -177Q31 -177 59 -148T88 -62V526H133V-62Q133 -113 114 -148T62 -202T-18 -220ZM88 635V745H133V635H88Z" />
<glyph unicode="k" horiz-adv-x="540" d="M88 0V757H133V205H103L430 526H498L280 313L518 0H458L230 299L261 300L126 163L133 182V0H88Z" />
<glyph unicode="l" horiz-adv-x="221" d="M88 0V757H133V0H88Z" />
<glyph unicode="m" horiz-adv-x="910" d="M88 0V526H133V413L124 428Q141 478 186 508T290 538Q352 538 404 502T475 403H459Q473 463 524 500T640 538Q691 538 735 514T806 447T833 345V0H788V340Q788 388 767 422T712 476T636 495Q589 495 555 472T502 409T483
320V0H438V340Q438 388 417 422T362 476T286 495Q239 495 205 472T152 409T133 320V0H88Z" />
<glyph unicode="n" horiz-adv-x="570" d="M88 0V526H133V415L121 420Q137 473 184 505T295 538Q348 538 393 514T465 447T493 345V0H448V340Q448 388 427 422T371 476T291 495Q241 495 206 472T152 409T133 320V0H88Z" />
<glyph unicode="o" horiz-adv-x="662" d="M331 -12Q256 -12 196 24T101 122T66 263Q66 342 101 404T196 502T331 538Q407 538 466 502T561 404T596 263Q596 185 561 123T467 24T331 -12ZM331 31Q392 31 441 61T519 145T548 263Q548 329 520 381T442 464T332 495Q270
495 221 465T143 382T114 263Q114 198 143 145T221 62T331 31Z" />
<glyph unicode="p" horiz-adv-x="674" d="M88 -200V526H133V377L125 394Q154 459 213 498T349 538Q423 538 481 502T574 404T608 263Q608 185 574 123T482 25T349 -12Q273 -12 214 27T125 132L133 149V-200H88ZM349 33Q410 33 457 63T532 145T560 263Q560 329
533 381T458 463T349 493Q289 493 241 463T164 382T136 264Q136 197 164 145T240 63T349 33Z" />
<glyph unicode="q" horiz-adv-x="674" d="M541 -200V149L549 132Q521 67 461 28T325 -12Q252 -12 193 24T100 123T66 263Q66 341 100 403T193 502T325 538Q401 538 461 499T549 394L541 377V526H586V-200H541ZM325 33Q386 33 434 63T510 145T538 263Q538 330 510
381T434 463T325 493Q264 493 217 463T142 381T114 263Q114 197 141 145T216 63T325 33Z" />
<glyph unicode="r" horiz-adv-x="340" d="M88 0V526H133V415L121 420Q136 473 181 502T285 532H318V487H284Q212 487 173 440T133 320V0H88Z" />
<glyph unicode="s" horiz-adv-x="506" d="M260 -12Q190 -12 136 22T55 118L97 137Q123 87 165 59T260 31Q316 31 354 59T393 133Q393 157 382 176T350 209T297 232L210 256Q146 273 114 308T82 395Q82 437 103 469T162 520T244 538Q308 538 360 506T433 420L389
400Q367 445 329 470T244 495Q194 495 161 467T128 396Q128 374 138 357T168 326T217 305L305 280Q370 262 405 225T440 135Q440 93 416 60T352 7T260 -12Z" />
<glyph unicode="t" horiz-adv-x="379" d="M270 -6Q209 -6 176 27T143 126V486H43V526H93Q119 526 131 539T143 580V650H188V526H302V486H188V126Q188 108 193 87T217 52T274 37Q282 37 294 38T313 40V0Q303 -3 290 -4T270 -6Z" />
<glyph unicode="u" horiz-adv-x="570" d="M275 -12Q223 -12 178 11T105 78T77 186V526H122V186Q122 136 143 101T201 49T279 31Q330 31 365 54T419 118T437 206V526H482V0H437V111L449 106Q433 54 387 21T275 -12Z" />
<glyph unicode="v" horiz-adv-x="519" d="M234 0L22 526H73L268 39H249L445 526H497L282 0H234Z" />
<glyph unicode="w" horiz-adv-x="769" d="M202 0L22 526H72L237 33H216L360 526H408L552 33H530L697 526H747L566 0H518L380 469H388L250 0H202Z" />
<glyph unicode="x" horiz-adv-x="474" d="M22 0L209 263L24 526H81L257 276H218L393 526H451L266 263L452 0H394L218 250H257L79 0H22Z" />
<glyph unicode="y" horiz-adv-x="529" d="M81 -220Q69 -220 53 -218T22 -211V-170Q36 -174 51 -175T78 -177Q127 -176 156 -151T207 -76L249 22L251 -24L28 526H79L280 30H252L455 526H507L255 -81Q244 -108 223 -140T167 -196T81 -220Z" />
<glyph unicode="z" horiz-adv-x="435" d="M33 0V30L370 516L385 486H52V526H410V496L72 10L57 40H413V0H33Z" />
<glyph unicode="{" horiz-adv-x="291" d="M240 -130Q186 -130 151 -94T116 1V205Q116 240 100 262T45 285H18V331H45Q83 331 99 353T116 412V614Q116 672 151 708T240 745H268V700H240Q206 700 186 676T166 616V412Q166 382 158 357T126 308Q149 286 157 258T166
203V-1Q166 -37 186 -61T240 -85H268V-130H240Z" />
<glyph unicode="|" horiz-adv-x="270" d="M110 -190V845H160V-190H110Z" />
<glyph unicode="}" horiz-adv-x="291" d="M23 -130V-85H51Q86 -85 105 -61T125 -1V203Q125 229 133 257T165 308Q142 331 134 356T125 412V616Q125 652 106 676T51 700H23V745H51Q105 745 140 709T175 614V412Q175 376 192 354T246 331H273V285H246Q209 285 192
263T175 205V1Q175 -57 140 -93T51 -130H23Z" />
<glyph unicode="~" horiz-adv-x="596" d="M392 203Q359 203 336 215T292 244T251 272T201 285Q174 285 155 270T130 209H87Q89 271 124 300T204 330Q237 330 260 318T304 289T345 261T395 248Q422 248 441 263T466 324H509Q507 263 472 233T392 203Z" />
<glyph unicode="&#xa0;" horiz-adv-x="160" />
<glyph unicode="&#xa1;" horiz-adv-x="255" d="M103 -219L105 318H150L153 -219H103ZM101 436V526H156V436H101Z" />
<glyph unicode="&#xa2;" horiz-adv-x="607" d="M328 98Q255 98 196 134T101 232T66 373Q66 452 101 514T195 612T328 648Q377 648 418 632T491 588T541 524L503 503Q475 553 430 579T328 606Q267 606 218 577T140 496T111 373Q111 303 140 251T218 169T328 140Q385
140 430 167T503 243L541 223Q523 188 492 160T419 115T328 98ZM304 0V745H349V0H304Z" />
<glyph unicode="&#xa3;" horiz-adv-x="648" d="M50 0V45H150V534Q150 601 177 651T254 729T369 757Q428 757 476 735T557 671T598 566L553 556Q543 630 495 671T369 712Q293 712 247 664T200 534V45H549V0H50ZM50 356V401H400V356H50Z" />
<glyph unicode="&#xa4;" horiz-adv-x="584" d="M97 43L66 75L140 149Q119 176 109 207T98 269Q98 300 108 331T140 390L66 465L97 495L171 421Q197 441 229 453T292 465Q324 465 355 453T413 421L487 495L518 465L445 390Q465 362 475 331T486 269Q486 237 476
207T445 149L518 75L487 43L413 117Q384 95 353 85T292 75Q264 75 232 85T171 117L97 43ZM292 123Q333 123 366 143T420 196T440 269Q440 309 420 342T367 396T292 416Q252 416 218 396T164 343T143 269Q143 229 163 196T218 143T292 123Z" />
<glyph unicode="&#xa5;" horiz-adv-x="624" d="M287 0V333L22 745H79L326 369H300L545 745H602L337 333V0H287ZM137 308V353H487V308H137ZM137 153V198H487V153H137Z" />
<glyph unicode="&#xa6;" horiz-adv-x="270" d="M110 428V845H160V428H110ZM110 -190V228H160V-190H110Z" />
<glyph unicode="&#xa7;" horiz-adv-x="546" d="M273 -90Q199 -90 140 -52T55 47L99 67Q126 12 174 -16T276 -45Q333 -45 372 -15T411 63Q411 88 400 108T366 143T310 168L218 194Q151 213 117 250T83 340Q83 384 106 418T167 471T254 491V456Q201 456 166 424T131
341Q131 320 141 301T173 268T225 244L318 218Q386 199 423 159T460 65Q460 21 436 -14T370 -70T273 -90ZM291 176V211Q350 211 390 244T431 329Q431 354 420 374T386 409T330 434L238 460Q171 479 137 516T103 606Q103 650 125 684T187 737T275 757Q341 757 396
723T473 633L427 612Q404 659 364 685T274 712Q221 712 186 682T151 607Q151 586 161 567T193 534T245 510L338 484Q406 465 443 425T480 331Q480 287 455 252T387 196T291 176Z" />
<glyph unicode="&#xa8;" horiz-adv-x="398" d="M103 640V715H173V640H103ZM253 640V715H323V640H253Z" />
<glyph unicode="&#xa9;" horiz-adv-x="895" d="M448 -12Q368 -12 298 17T175 100T93 223T63 373Q63 452 92 521T175 644T297 727T448 757Q528 757 597 727T720 644T802 522T832 373Q832 292 802 223T719 100T597 18T448 -12ZM448 36Q518 36 578 62T685 134T756
241T782 373Q782 442 757 503T685 610T579 683T448 709Q378 709 317 683T210 611T139 504T113 373Q113 303 138 242T210 134T317 62T448 36ZM451 163Q395 163 351 190T280 265T254 373Q254 434 280 481T350 555T451 582Q493 582 526 567T583 529T616 480L572 459Q558
492 527 514T451 536Q386 536 345 491T304 373Q304 300 345 255T451 209Q496 209 526 231T572 286L616 265Q606 240 583 217T527 178T451 163Z" />
<glyph unicode="&#xaa;" horiz-adv-x="456" d="M188 367Q137 367 102 396T66 471Q66 511 94 544T187 588L336 613V573L198 550Q150 542 131 522T112 473Q112 443 135 424T191 405Q232 405 262 423T308 472T325 539V631Q325 668 299 691T229 714Q195 714 167 697T124
651L85 673Q102 707 142 731T229 755Q291 755 329 720T368 631V375H325V452L330 449Q316 415 277 391T188 367Z" />
<glyph unicode="&#xab;" horiz-adv-x="472" d="M180 83L29 269L180 455H227L80 269L227 83H180ZM396 83L245 269L396 455H443L296 269L443 83H396Z" />
<glyph unicode="&#xac;" horiz-adv-x="596" d="M503 40V228H48V273H548V40H503Z" />
<glyph unicode="&#xad;" horiz-adv-x="468" d="M74 241V286H394V241H74Z" />
<glyph unicode="&#xae;" horiz-adv-x="639" d="M320 272Q249 272 191 306T98 399T63 528Q63 598 97 656T190 749T320 784Q373 784 419 764T501 709T556 627T576 528Q576 457 541 399T448 307T320 272ZM320 315Q379 315 427 343T503 420T532 528Q532 587 504 635T427
711T320 740Q260 740 212 712T136 635T107 528Q107 469 135 421T212 344T320 315ZM231 394V664H331Q371 664 397 642T423 579Q423 555 411 534T372 501L435 394H385L328 495H275V394H231ZM275 533H331Q353 533 366 546T379 580Q379 600 366 612T331 624H275V533Z"
/>
<glyph unicode="&#xaf;" horiz-adv-x="433" d="M103 660V700H353V660H103Z" />
<glyph unicode="&#xb0;" horiz-adv-x="440" d="M220 486Q182 486 151 503T103 551T85 621Q85 660 102 690T151 739T220 757Q259 757 289 739T337 690T355 620Q355 582 338 552T290 504T220 486ZM220 524Q256 524 286 550T316 621Q316 665 286 691T220 718Q183
718 154 692T124 621Q124 577 153 551T220 524Z" />
<glyph unicode="&#xb1;" horiz-adv-x="596" d="M276 145V343H48V388H276V585H321V388H548V343H321V145H276ZM48 0V45H548V0H48Z" />
<glyph unicode="&#xb2;" horiz-adv-x="428" d="M45 223V253L192 412Q235 458 263 490T305 549T319 610Q319 657 291 684T212 711Q163 711 129 683T83 603L41 613Q50 656 73 687T132 735T211 753Q255 753 290 735T345 686T366 611Q366 564 337 520T250 414L112
265H377V223H45Z" />
<glyph unicode="&#xb3;" horiz-adv-x="430" d="M212 215Q170 215 135 230T75 275T39 344L79 359Q93 311 127 284T212 256Q269 256 304 290T340 381Q340 440 303 470T212 500Q194 500 176 497L168 517L312 703H61V745H367V709L227 526L224 537Q268 537 305 518T364
463T387 380Q387 335 365 298T303 238T212 215Z" />
<glyph unicode="&#xb4;" horiz-adv-x="330" d="M103 640L195 790H256L148 640H103Z" />
<glyph unicode="&#xb5;" horiz-adv-x="570" d="M77 -140V526H122V186Q122 136 143 101T201 49T279 31Q330 31 365 54T419 118T437 206V526H482V0H437V113L446 98Q429 49 383 19T275 -12Q224 -12 179 10T108 75L122 91V-140H77Z" />
<glyph unicode="&#xb6;" horiz-adv-x="358" d="M198 -100V453Q153 453 120 471T67 522T48 599Q48 643 66 676T118 727T198 745H248V-100H198Z" />
<glyph unicode="&#xb7;" horiz-adv-x="261" d="M103 226V316H158V226H103Z" />
<glyph unicode="&#xb8;" horiz-adv-x="382" d="M199 -220Q171 -220 146 -210T103 -181L118 -149Q134 -166 155 -175T197 -185Q222 -185 236 -172T251 -139Q251 -111 223 -96T148 -76L173 10H216L200 -49Q243 -56 268 -80T294 -136Q294 -174 268 -197T199 -220Z" />
<glyph unicode="&#xb9;" horiz-adv-x="292" d="M126 223V703H28V745H173V223H126Z" />
<glyph unicode="&#xba;" horiz-adv-x="509" d="M255 367Q202 367 159 392T91 462T66 561Q66 617 91 660T159 729T255 755Q308 755 350 730T418 661T443 561Q443 505 418 461T351 392T255 367ZM255 409Q294 409 326 429T377 483T397 561Q397 604 378 638T327 693T255
713Q215 713 183 693T131 639T112 561Q112 519 131 485T182 430T255 409Z" />
<glyph unicode="&#xbb;" horiz-adv-x="472" d="M245 83L392 269L245 455H292L443 269L292 83H245ZM29 83L176 269L29 455H76L227 269L76 83H29Z" />
<glyph unicode="&#xbc;" horiz-adv-x="863" d="M107 327V705H28V745H152V327H107ZM122 0L568 745H620L174 0H122ZM722 0V97H512V134L723 418H764V135H816V97H764V0H722ZM547 119L541 135H722V379L737 375L547 119Z" />
<glyph unicode="&#xbd;" horiz-adv-x="835" d="M107 327V705H28V745H152V327H107ZM122 0L568 745H620L174 0H122ZM515 0V30L632 156Q666 193 687 217T719 262T730 307Q730 343 708 363T650 383Q613 383 588 362T552 302L512 313Q520 348 539 372T586 410T649 424Q704
424 739 392T775 309Q775 269 750 233T686 156L578 40H784V0H515Z" />
<glyph unicode="&#xbe;" horiz-adv-x="956" d="M179 321Q129 321 91 348T39 422L77 437Q88 401 115 381T179 360Q222 360 248 385T275 454Q275 498 248 521T179 545Q171 545 162 544T147 541L139 561L252 705H58V745H304V709L194 568L192 580Q245 579 283 545T321
454Q321 417 303 387T253 339T179 321ZM215 0L661 745H713L267 0H215ZM815 0V97H605V134L816 418H857V135H909V97H857V0H815ZM640 119L634 135H815V379L830 375L640 119Z" />
<glyph unicode="&#xbf;" horiz-adv-x="474" d="M230 -231Q178 -231 136 -208T69 -147T44 -64Q44 -16 65 21T117 89T179 152Q214 188 241 226T269 314V318H314V314Q314 268 298 233T256 169T200 113Q159 74 127 32T94 -66Q94 -96 110 -124T156 -169T230 -187Q293
-187 336 -149T395 -41L439 -50Q430 -106 401 -146T327 -209T230 -231ZM263 436V526H318V436H263Z" />
<glyph unicode="&#xc0;" horiz-adv-x="644" d="M22 0L298 745H346L622 0H567L495 197H149L77 0H22ZM165 242H479L310 704H334L165 242ZM300 859L192 1009H253L345 859H300Z" />
<glyph unicode="&#xc1;" horiz-adv-x="644" d="M22 0L298 745H346L622 0H567L495 197H149L77 0H22ZM165 242H479L310 704H334L165 242ZM299 859L391 1009H452L344 859H299Z" />
<glyph unicode="&#xc2;" horiz-adv-x="644" d="M22 0L298 745H346L622 0H567L495 197H149L77 0H22ZM165 242H479L310 704H334L165 242ZM175 859L300 1009H343L469 859H418L322 973L226 859H175Z" />
<glyph unicode="&#xc3;" horiz-adv-x="644" d="M22 0L298 745H346L622 0H567L495 197H149L77 0H22ZM165 242H479L310 704H334L165 242ZM379 859Q354 859 338 869T310 894T287 919T260 930Q241 930 231 914T220 863H180Q180 911 201 940T263 969Q288 969 303 959T329
934T352 909T381 898Q402 898 413 914T424 965H464Q464 919 442 889T379 859Z" />
<glyph unicode="&#xc4;" horiz-adv-x="644" d="M22 0L298 745H346L622 0H567L495 197H149L77 0H22ZM165 242H479L310 704H334L165 242ZM212 859V934H282V859H212ZM362 859V934H432V859H362Z" />
<glyph unicode="&#xc5;" horiz-adv-x="644" d="M22 0L298 745H346L622 0H567L495 197H149L77 0H22ZM165 242H479L310 704H334L165 242ZM322 839Q283 839 255 864T227 933Q227 976 255 1001T321 1027Q360 1027 388 1001T416 933Q416 890 388 865T322 839ZM321 875Q344
875 361 891T379 933Q379 959 362 974T321 990Q298 990 282 975T265 933Q265 907 281 891T321 875Z" />
<glyph unicode="&#xc6;" horiz-adv-x="987" d="M22 0L298 745H932V700H522V396H912V351H522V45H932V0H472V197H149L77 0H22ZM165 242H472V700H333L165 242Z" />
<glyph unicode="&#xc7;" horiz-adv-x="788" d="M430 -12Q354 -12 290 16T178 97T104 219T77 373Q77 456 103 526T178 648T290 728T430 757Q504 757 563 730T663 661T722 576L675 555Q642 625 579 667T430 709Q341 709 273 667T166 549T127 373Q127 273 165 197T272
79T430 36Q515 36 578 78T675 190L722 169Q704 126 663 85T563 16T430 -12ZM438 -220Q410 -220 385 -210T342 -181L357 -149Q373 -166 394 -175T436 -185Q461 -185 475 -172T490 -139Q490 -111 462 -96T387 -76L412 10H455L439 -49Q482 -56 507 -80T533 -136Q533
-174 507 -197T438 -220Z" />
<glyph unicode="&#xc8;" horiz-adv-x="614" d="M99 0V745H559V700H149V396H539V351H149V45H559V0H99ZM307 859L199 1009H260L352 859H307Z" />
<glyph unicode="&#xc9;" horiz-adv-x="614" d="M99 0V745H559V700H149V396H539V351H149V45H559V0H99ZM306 859L398 1009H459L351 859H306Z" />
<glyph unicode="&#xca;" horiz-adv-x="614" d="M99 0V745H559V700H149V396H539V351H149V45H559V0H99ZM182 859L307 1009H350L476 859H425L329 973L233 859H182Z" />
<glyph unicode="&#xcb;" horiz-adv-x="614" d="M99 0V745H559V700H149V396H539V351H149V45H559V0H99ZM219 859V934H289V859H219ZM369 859V934H439V859H369Z" />
<glyph unicode="&#xcc;" horiz-adv-x="248" d="M99 0V745H149V0H99ZM102 859L-6 1009H55L147 859H102Z" />
<glyph unicode="&#xcd;" horiz-adv-x="248" d="M99 0V745H149V0H99ZM101 859L193 1009H254L146 859H101Z" />
<glyph unicode="&#xce;" horiz-adv-x="248" d="M99 0V745H149V0H99ZM-23 859L102 1009H145L271 859H220L124 973L28 859H-23Z" />
<glyph unicode="&#xcf;" horiz-adv-x="248" d="M99 0V745H149V0H99ZM14 859V934H84V859H14ZM164 859V934H234V859H164Z" />
<glyph unicode="&#xd0;" horiz-adv-x="744" d="M29 350V395H319V350H29ZM99 0V745H337Q445 745 524 700T646 571T689 373Q689 260 646 176T524 46T337 0H99ZM149 45H335Q426 45 494 86T601 201T639 373Q639 471 601 544T495 659T335 700H149V45Z" />
<glyph unicode="&#xd1;" horiz-adv-x="738" d="M99 0V745H139L605 78H589V745H639V0H599L130 671H149V0H99ZM426 859Q401 859 385 869T357 894T334 919T307 930Q288 930 278 914T267 863H227Q227 911 248 940T310 969Q335 969 350 959T376 934T399 909T428 898Q449
898 460 914T471 965H511Q511 919 489 889T426 859Z" />
<glyph unicode="&#xd2;" horiz-adv-x="884" d="M442 -12Q367 -12 301 16T184 95T106 217T77 373Q77 458 105 528T184 649T301 729T442 757Q517 757 583 729T699 650T778 528T807 373Q807 288 779 218T700 96T584 16T442 -12ZM442 36Q512 36 570 62T670 136T734
244T757 373Q757 440 735 500T671 608T571 682T442 709Q372 709 314 682T214 608T150 501T127 373Q127 305 149 244T214 136T314 63T442 36ZM420 859L312 1009H373L465 859H420Z" />
<glyph unicode="&#xd3;" horiz-adv-x="884" d="M442 -12Q367 -12 301 16T184 95T106 217T77 373Q77 458 105 528T184 649T301 729T442 757Q517 757 583 729T699 650T778 528T807 373Q807 288 779 218T700 96T584 16T442 -12ZM442 36Q512 36 570 62T670 136T734
244T757 373Q757 440 735 500T671 608T571 682T442 709Q372 709 314 682T214 608T150 501T127 373Q127 305 149 244T214 136T314 63T442 36ZM419 859L511 1009H572L464 859H419Z" />
<glyph unicode="&#xd4;" horiz-adv-x="884" d="M442 -12Q367 -12 301 16T184 95T106 217T77 373Q77 458 105 528T184 649T301 729T442 757Q517 757 583 729T699 650T778 528T807 373Q807 288 779 218T700 96T584 16T442 -12ZM442 36Q512 36 570 62T670 136T734
244T757 373Q757 440 735 500T671 608T571 682T442 709Q372 709 314 682T214 608T150 501T127 373Q127 305 149 244T214 136T314 63T442 36ZM295 859L420 1009H463L589 859H538L442 973L346 859H295Z" />
<glyph unicode="&#xd5;" horiz-adv-x="884" d="M442 -12Q367 -12 301 16T184 95T106 217T77 373Q77 458 105 528T184 649T301 729T442 757Q517 757 583 729T699 650T778 528T807 373Q807 288 779 218T700 96T584 16T442 -12ZM442 36Q512 36 570 62T670 136T734
244T757 373Q757 440 735 500T671 608T571 682T442 709Q372 709 314 682T214 608T150 501T127 373Q127 305 149 244T214 136T314 63T442 36ZM499 859Q474 859 458 869T430 894T407 919T380 930Q361 930 351 914T340 863H300Q300 911 321 940T383 969Q408 969 423
959T449 934T472 909T501 898Q522 898 533 914T544 965H584Q584 919 562 889T499 859Z" />
<glyph unicode="&#xd6;" horiz-adv-x="884" d="M442 -12Q367 -12 301 16T184 95T106 217T77 373Q77 458 105 528T184 649T301 729T442 757Q517 757 583 729T699 650T778 528T807 373Q807 288 779 218T700 96T584 16T442 -12ZM442 36Q512 36 570 62T670 136T734
244T757 373Q757 440 735 500T671 608T571 682T442 709Q372 709 314 682T214 608T150 501T127 373Q127 305 149 244T214 136T314 63T442 36ZM332 859V934H402V859H332ZM482 859V934H552V859H482Z" />
<glyph unicode="&#xd7;" horiz-adv-x="596" d="M123 0L91 31L266 207L92 381L123 413L298 239L473 413L504 381L330 207L505 31L473 0L298 175L123 0Z" />
<glyph unicode="&#xd8;" horiz-adv-x="884" d="M105 0L715 745H779L169 0H105ZM442 -12Q367 -12 301 16T184 95T106 217T77 373Q77 458 105 528T184 649T301 729T442 757Q517 757 583 729T699 650T778 528T807 373Q807 288 779 218T700 96T584 16T442 -12ZM442
36Q512 36 570 62T670 136T734 244T757 373Q757 440 735 500T671 608T571 682T442 709Q372 709 314 682T214 608T150 501T127 373Q127 305 149 244T214 136T314 63T442 36Z" />
<glyph unicode="&#xd9;" horiz-adv-x="690" d="M345 -12Q271 -12 215 21T127 113T95 251V745H145V247Q145 184 170 136T240 61T345 33Q405 33 450 60T520 136T545 247V745H595V251Q595 172 564 113T476 21T345 -12ZM323 859L215 1009H276L368 859H323Z" />
<glyph unicode="&#xda;" horiz-adv-x="690" d="M345 -12Q271 -12 215 21T127 113T95 251V745H145V247Q145 184 170 136T240 61T345 33Q405 33 450 60T520 136T545 247V745H595V251Q595 172 564 113T476 21T345 -12ZM322 859L414 1009H475L367 859H322Z" />
<glyph unicode="&#xdb;" horiz-adv-x="690" d="M345 -12Q271 -12 215 21T127 113T95 251V745H145V247Q145 184 170 136T240 61T345 33Q405 33 450 60T520 136T545 247V745H595V251Q595 172 564 113T476 21T345 -12ZM198 859L323 1009H366L492 859H441L345 973L249
859H198Z" />
<glyph unicode="&#xdc;" horiz-adv-x="690" d="M345 -12Q271 -12 215 21T127 113T95 251V745H145V247Q145 184 170 136T240 61T345 33Q405 33 450 60T520 136T545 247V745H595V251Q595 172 564 113T476 21T345 -12ZM235 859V934H305V859H235ZM385 859V934H455V859H385Z" />
<glyph unicode="&#xdd;" horiz-adv-x="624" d="M287 0V333L22 745H79L326 369H300L545 745H602L337 333V0H287ZM289 859L381 1009H442L334 859H289Z" />
<glyph unicode="&#xde;" horiz-adv-x="635" d="M95 0V745H145V595H339Q409 595 462 567T545 489T575 372Q575 306 545 256T462 178T339 150H145V0H95ZM145 195H339Q394 195 435 217T501 280T525 373Q525 426 502 465T436 527T339 550H145V195Z" />
<glyph unicode="&#xdf;" horiz-adv-x="605" d="M99 -140V551Q99 614 127 660T202 731T307 757Q363 757 408 734T481 667T508 565Q508 496 471 454T369 387L366 405Q451 383 495 334T539 209Q539 146 510 99T430 26T314 0H245V45H314Q391 45 439 90T488 208Q488
282 438 327T307 372H245V417H300Q344 417 379 435T436 486T457 565Q457 607 438 640T385 693T305 712Q260 712 224 692T167 636T145 551V-140H99Z" />
<glyph unicode="&#xe0;" horiz-adv-x="574" d="M237 -12Q189 -12 151 6T89 58T66 136Q66 172 82 205T136 264T237 299L457 336V293L252 259Q174 246 143 213T112 138Q112 88 149 59T241 30Q302 30 346 59T416 135T441 238V365Q441 424 401 459T293 495Q242 495
199 470T132 404L92 425Q107 455 136 480T206 522T293 538Q350 538 393 516T461 455T486 365V0H441V115H445Q432 82 402 53T330 6T237 -12ZM271 640L163 790H224L316 640H271Z" />
<glyph unicode="&#xe1;" horiz-adv-x="574" d="M237 -12Q189 -12 151 6T89 58T66 136Q66 172 82 205T136 264T237 299L457 336V293L252 259Q174 246 143 213T112 138Q112 88 149 59T241 30Q302 30 346 59T416 135T441 238V365Q441 424 401 459T293 495Q242 495
199 470T132 404L92 425Q107 455 136 480T206 522T293 538Q350 538 393 516T461 455T486 365V0H441V115H445Q432 82 402 53T330 6T237 -12ZM270 640L362 790H423L315 640H270Z" />
<glyph unicode="&#xe2;" horiz-adv-x="574" d="M237 -12Q189 -12 151 6T89 58T66 136Q66 172 82 205T136 264T237 299L457 336V293L252 259Q174 246 143 213T112 138Q112 88 149 59T241 30Q302 30 346 59T416 135T441 238V365Q441 424 401 459T293 495Q242 495
199 470T132 404L92 425Q107 455 136 480T206 522T293 538Q350 538 393 516T461 455T486 365V0H441V115H445Q432 82 402 53T330 6T237 -12ZM146 640L271 790H314L440 640H389L293 754L197 640H146Z" />
<glyph unicode="&#xe3;" horiz-adv-x="574" d="M237 -12Q189 -12 151 6T89 58T66 136Q66 172 82 205T136 264T237 299L457 336V293L252 259Q174 246 143 213T112 138Q112 88 149 59T241 30Q302 30 346 59T416 135T441 238V365Q441 424 401 459T293 495Q242 495
199 470T132 404L92 425Q107 455 136 480T206 522T293 538Q350 538 393 516T461 455T486 365V0H441V115H445Q432 82 402 53T330 6T237 -12ZM350 640Q325 640 309 650T281 675T258 700T231 711Q212 711 202 695T191 644H151Q151 692 172 721T234 750Q259 750 274
740T300 715T323 690T352 679Q373 679 384 695T395 746H435Q435 700 413 670T350 640Z" />
<glyph unicode="&#xe4;" horiz-adv-x="574" d="M237 -12Q189 -12 151 6T89 58T66 136Q66 172 82 205T136 264T237 299L457 336V293L252 259Q174 246 143 213T112 138Q112 88 149 59T241 30Q302 30 346 59T416 135T441 238V365Q441 424 401 459T293 495Q242 495
199 470T132 404L92 425Q107 455 136 480T206 522T293 538Q350 538 393 516T461 455T486 365V0H441V115H445Q432 82 402 53T330 6T237 -12ZM183 640V715H253V640H183ZM333 640V715H403V640H333Z" />
<glyph unicode="&#xe5;" horiz-adv-x="574" d="M237 -12Q189 -12 151 6T89 58T66 136Q66 172 82 205T136 264T237 299L457 336V293L252 259Q174 246 143 213T112 138Q112 88 149 59T241 30Q302 30 346 59T416 135T441 238V365Q441 424 401 459T293 495Q242 495
199 470T132 404L92 425Q107 455 136 480T206 522T293 538Q350 538 393 516T461 455T486 365V0H441V115H445Q432 82 402 53T330 6T237 -12ZM293 620Q254 620 226 645T198 714Q198 757 226 782T292 808Q331 808 359 782T387 714Q387 671 359 646T293 620ZM292 656Q315
656 332 672T350 714Q350 740 333 755T292 771Q269 771 253 756T236 714Q236 688 252 672T292 656Z" />
<glyph unicode="&#xe6;" horiz-adv-x="1002" d="M237 -12Q189 -12 151 6T89 58T66 136Q66 172 82 205T136 264T237 299L440 333V365Q440 424 400 459T293 495Q242 495 199 470T132 404L92 425Q107 455 136 480T206 522T293 538Q371 538 423 497T485 389L469 390Q500
458 560 498T696 538Q747 538 791 519T867 466T918 387T936 288Q936 278 936 269T933 249H486Q490 186 519 137T596 59T706 30Q763 30 809 57T883 133L921 113Q902 75 869 47T795 3T706 -12Q630 -12 569 26T474 128L486 143V0H440V140L448 122Q436 88 406 57T333
7T237 -12ZM241 30Q302 30 346 59T415 135T440 238V290L252 259Q174 246 143 213T112 138Q112 88 149 59T241 30ZM487 289H890Q890 348 865 394T795 468T696 496Q641 496 596 469T522 395T487 289Z" />
<glyph unicode="&#xe7;" horiz-adv-x="607" d="M328 -12Q255 -12 196 24T101 122T66 263Q66 342 101 404T195 502T328 538Q377 538 418 522T491 478T541 414L503 393Q475 443 430 469T328 496Q267 496 218 467T140 386T111 263Q111 193 140 141T218 59T328 30Q385
30 430 57T503 133L541 113Q523 78 492 50T419 5T328 -12ZM336 -220Q308 -220 283 -210T240 -181L255 -149Q271 -166 292 -175T334 -185Q359 -185 373 -172T388 -139Q388 -111 360 -96T285 -76L310 10H353L337 -49Q380 -56 405 -80T431 -136Q431 -174 405 -197T336
-220Z" />
<glyph unicode="&#xe8;" horiz-adv-x="627" d="M331 -12Q256 -12 196 24T101 123T66 263Q66 341 100 403T191 502T321 538Q372 538 416 519T492 466T543 387T561 288Q561 278 561 269T558 249H89V289H532L515 276Q518 338 493 387T423 466T321 496Q262 496 215
465T139 382T111 263Q111 197 140 144T218 61T331 30Q388 30 434 57T508 133L546 113Q527 75 494 47T420 3T331 -12ZM292 640L184 790H245L337 640H292Z" />
<glyph unicode="&#xe9;" horiz-adv-x="627" d="M331 -12Q256 -12 196 24T101 123T66 263Q66 341 100 403T191 502T321 538Q372 538 416 519T492 466T543 387T561 288Q561 278 561 269T558 249H89V289H532L515 276Q518 338 493 387T423 466T321 496Q262 496 215
465T139 382T111 263Q111 197 140 144T218 61T331 30Q388 30 434 57T508 133L546 113Q527 75 494 47T420 3T331 -12ZM291 640L383 790H444L336 640H291Z" />
<glyph unicode="&#xea;" horiz-adv-x="627" d="M331 -12Q256 -12 196 24T101 123T66 263Q66 341 100 403T191 502T321 538Q372 538 416 519T492 466T543 387T561 288Q561 278 561 269T558 249H89V289H532L515 276Q518 338 493 387T423 466T321 496Q262 496 215
465T139 382T111 263Q111 197 140 144T218 61T331 30Q388 30 434 57T508 133L546 113Q527 75 494 47T420 3T331 -12ZM167 640L292 790H335L461 640H410L314 754L218 640H167Z" />
<glyph unicode="&#xeb;" horiz-adv-x="627" d="M331 -12Q256 -12 196 24T101 123T66 263Q66 341 100 403T191 502T321 538Q372 538 416 519T492 466T543 387T561 288Q561 278 561 269T558 249H89V289H532L515 276Q518 338 493 387T423 466T321 496Q262 496 215
465T139 382T111 263Q111 197 140 144T218 61T331 30Q388 30 434 57T508 133L546 113Q527 75 494 47T420 3T331 -12ZM204 640V715H274V640H204ZM354 640V715H424V640H354Z" />
<glyph unicode="&#xec;" horiz-adv-x="185" d="M70 0V526H115V0H70ZM70 640L-38 790H23L115 640H70Z" />
<glyph unicode="&#xed;" horiz-adv-x="185" d="M70 0V526H115V0H70ZM325 640L417 790H478L370 640H325Z" />
<glyph unicode="&#xee;" horiz-adv-x="185" d="M70 0V526H115V0H70ZM-55 640L70 790H113L239 640H188L92 754L-4 640H-55Z" />
<glyph unicode="&#xef;" horiz-adv-x="185" d="M70 0V526H115V0H70ZM238 640V715H308V640H238ZM388 640V715H458V640H388Z" />
<glyph unicode="&#xf0;" horiz-adv-x="664" d="M335 -12Q277 -12 228 8T142 66T86 152T66 259Q66 335 100 396T194 492T332 528Q377 528 422 513T505 462T568 364L548 348Q548 402 531 458T483 567T407 662T308 728T191 753Q168 753 143 749T91 736L78 778Q138
796 196 796Q274 796 337 767T449 689T531 575T581 441T598 301Q598 197 563 128T469 23T335 -12ZM331 31Q392 31 441 61T519 144T548 260Q548 323 520 374T443 455T331 485Q268 485 219 455T142 374T114 259Q114 194 143 143T222 61T331 31ZM251 588V630L527 727V684L251
588Z" />
<glyph unicode="&#xf1;" horiz-adv-x="570" d="M88 0V526H133V415L121 420Q137 473 184 505T295 538Q348 538 393 514T465 447T493 345V0H448V340Q448 388 427 422T371 476T291 495Q241 495 206 472T152 409T133 320V0H88ZM342 640Q317 640 301 650T273 675T250
700T223 711Q204 711 194 695T183 644H143Q143 692 164 721T226 750Q251 750 266 740T292 715T315 690T344 679Q365 679 376 695T387 746H427Q427 700 405 670T342 640Z" />
<glyph unicode="&#xf2;" horiz-adv-x="662" d="M331 -12Q256 -12 196 24T101 122T66 263Q66 342 101 404T196 502T331 538Q407 538 466 502T561 404T596 263Q596 185 561 123T467 24T331 -12ZM331 31Q392 31 441 61T519 145T548 263Q548 329 520 381T442 464T332
495Q270 495 221 465T143 382T114 263Q114 198 143 145T221 62T331 31ZM309 640L201 790H262L354 640H309Z" />
<glyph unicode="&#xf3;" horiz-adv-x="662" d="M331 -12Q256 -12 196 24T101 122T66 263Q66 342 101 404T196 502T331 538Q407 538 466 502T561 404T596 263Q596 185 561 123T467 24T331 -12ZM331 31Q392 31 441 61T519 145T548 263Q548 329 520 381T442 464T332
495Q270 495 221 465T143 382T114 263Q114 198 143 145T221 62T331 31ZM308 640L400 790H461L353 640H308Z" />
<glyph unicode="&#xf4;" horiz-adv-x="662" d="M331 -12Q256 -12 196 24T101 122T66 263Q66 342 101 404T196 502T331 538Q407 538 466 502T561 404T596 263Q596 185 561 123T467 24T331 -12ZM331 31Q392 31 441 61T519 145T548 263Q548 329 520 381T442 464T332
495Q270 495 221 465T143 382T114 263Q114 198 143 145T221 62T331 31ZM184 640L309 790H352L478 640H427L331 754L235 640H184Z" />
<glyph unicode="&#xf5;" horiz-adv-x="662" d="M331 -12Q256 -12 196 24T101 122T66 263Q66 342 101 404T196 502T331 538Q407 538 466 502T561 404T596 263Q596 185 561 123T467 24T331 -12ZM331 31Q392 31 441 61T519 145T548 263Q548 329 520 381T442 464T332
495Q270 495 221 465T143 382T114 263Q114 198 143 145T221 62T331 31ZM388 640Q363 640 347 650T319 675T296 700T269 711Q250 711 240 695T229 644H189Q189 692 210 721T272 750Q297 750 312 740T338 715T361 690T390 679Q411 679 422 695T433 746H473Q473 700
451 670T388 640Z" />
<glyph unicode="&#xf6;" horiz-adv-x="662" d="M331 -12Q256 -12 196 24T101 122T66 263Q66 342 101 404T196 502T331 538Q407 538 466 502T561 404T596 263Q596 185 561 123T467 24T331 -12ZM331 31Q392 31 441 61T519 145T548 263Q548 329 520 381T442 464T332
495Q270 495 221 465T143 382T114 263Q114 198 143 145T221 62T331 31ZM221 640V715H291V640H221ZM371 640V715H441V640H371Z" />
<glyph unicode="&#xf7;" horiz-adv-x="596" d="M48 228V273H548V228H48ZM271 0V78H326V0H271ZM271 422V500H326V422H271Z" />
<glyph unicode="&#xf8;" horiz-adv-x="662" d="M63 0L532 526H598L129 0H63ZM331 -12Q256 -12 196 24T101 122T66 263Q66 342 101 404T196 502T331 538Q407 538 466 502T561 404T596 263Q596 185 561 123T467 24T331 -12ZM331 31Q392 31 441 61T519 145T548 263Q548
329 520 381T442 464T332 495Q270 495 221 465T143 382T114 263Q114 198 143 145T221 62T331 31Z" />
<glyph unicode="&#xf9;" horiz-adv-x="570" d="M275 -12Q223 -12 178 11T105 78T77 186V526H122V186Q122 136 143 101T201 49T279 31Q330 31 365 54T419 118T437 206V526H482V0H437V111L449 106Q433 54 387 21T275 -12ZM263 640L155 790H216L308 640H263Z" />
<glyph unicode="&#xfa;" horiz-adv-x="570" d="M275 -12Q223 -12 178 11T105 78T77 186V526H122V186Q122 136 143 101T201 49T279 31Q330 31 365 54T419 118T437 206V526H482V0H437V111L449 106Q433 54 387 21T275 -12ZM262 640L354 790H415L307 640H262Z" />
<glyph unicode="&#xfb;" horiz-adv-x="570" d="M275 -12Q223 -12 178 11T105 78T77 186V526H122V186Q122 136 143 101T201 49T279 31Q330 31 365 54T419 118T437 206V526H482V0H437V111L449 106Q433 54 387 21T275 -12ZM138 640L263 790H306L432 640H381L285 754L189
640H138Z" />
<glyph unicode="&#xfc;" horiz-adv-x="570" d="M275 -12Q223 -12 178 11T105 78T77 186V526H122V186Q122 136 143 101T201 49T279 31Q330 31 365 54T419 118T437 206V526H482V0H437V111L449 106Q433 54 387 21T275 -12ZM175 640V715H245V640H175ZM325 640V715H395V640H325Z"
/>
<glyph unicode="&#xfd;" horiz-adv-x="529" d="M81 -220Q69 -220 53 -218T22 -211V-170Q36 -174 51 -175T78 -177Q127 -176 156 -151T207 -76L249 22L251 -24L28 526H79L280 30H252L455 526H507L255 -81Q244 -108 223 -140T167 -196T81 -220ZM242 640L334 790H395L287
640H242Z" />
<glyph unicode="&#xfe;" horiz-adv-x="674" d="M88 -200V745H133V377L125 394Q154 459 213 498T349 538Q423 538 481 502T574 404T608 263Q608 185 574 123T482 25T349 -12Q273 -12 214 27T125 132L133 149V-200H88ZM349 33Q410 33 457 63T532 145T560 263Q560
329 533 381T458 463T349 493Q289 493 241 463T164 382T136 263Q136 197 164 145T240 63T349 33Z" />
<glyph unicode="&#xff;" horiz-adv-x="529" d="M81 -220Q69 -220 53 -218T22 -211V-170Q36 -174 51 -175T78 -177Q127 -176 156 -151T207 -76L249 22L251 -24L28 526H79L280 30H252L455 526H507L255 -81Q244 -108 223 -140T167 -196T81 -220ZM155 640V715H225V640H155ZM305
640V715H375V640H305Z" />
<glyph unicode="&#x2013;" horiz-adv-x="548" d="M74 241V286H474V241H74Z" />
<glyph unicode="&#x2014;" horiz-adv-x="888" d="M74 241V286H814V241H74Z" />
<glyph unicode="&#x2018;" horiz-adv-x="248" d="M81 562V638Q81 683 102 715T156 757V725Q135 721 124 701T112 652H136V562H81Z" />
<glyph unicode="&#x2019;" horiz-adv-x="248" d="M81 550V582Q102 587 113 606T125 655H101V745H156V669Q156 624 135 592T81 550Z" />
<glyph unicode="&#x201a;" horiz-adv-x="248" d="M81 -105V-73Q102 -68 113 -49T125 0H101V90H156V14Q156 -31 135 -63T81 -105Z" />
<glyph unicode="&#x201c;" horiz-adv-x="378" d="M211 562V638Q211 683 232 715T286 757V725Q265 721 254 701T242 652H266V562H211ZM81 562V638Q81 683 102 715T156 757V725Q135 721 124 701T112 652H136V562H81Z" />
<glyph unicode="&#x201d;" horiz-adv-x="378" d="M211 550V582Q232 587 243 606T255 655H231V745H286V669Q286 624 265 592T211 550ZM81 550V582Q102 587 113 606T125 655H101V745H156V669Q156 624 135 592T81 550Z" />
<glyph unicode="&#x201e;" horiz-adv-x="378" d="M81 -105V-73Q102 -68 113 -49T125 0H101V90H156V14Q156 -31 135 -63T81 -105ZM211 -105V-73Q232 -68 243 -49T255 0H231V90H286V14Q286 -31 265 -63T211 -105Z" />
<glyph unicode="&#x2022;" horiz-adv-x="456" d="M230 138Q194 138 166 154T120 200T103 265Q103 299 120 327T165 371T230 388Q265 388 292 372T335 327T353 265Q353 229 337 200T293 155T230 138Z" />
<glyph unicode="&#x2039;" horiz-adv-x="256" d="M180 83L29 269L180 455H227L80 269L227 83H180Z" />
<glyph unicode="&#x203a;" horiz-adv-x="256" d="M29 83L176 269L29 455H76L227 269L76 83H29Z" />
</font>
</defs>
</svg>
