<?xml version="1.0" standalone="no"?>
<!DOCTYPE svg PUBLIC "-//W3C//DTD SVG 1.1//EN" "http://www.w3.org/Graphics/SVG/1.1/DTD/svg11.dtd">
<svg xmlns="http://www.w3.org/2000/svg">
<defs >
<font id="PlusJakartaSans" horiz-adv-x="585" ><font-face
    font-family="Plus Jakarta Sans Light"
    units-per-em="1000"
    panose-1="0 0 0 0 0 0 0 0 0 0"
    ascent="1038"
    descent="-222"
    alphabetic="0" />
<glyph unicode=" " horiz-adv-x="165" />
<glyph unicode="!" horiz-adv-x="269" d="M106 211L102 745H167L163 211H106ZM101 0V100H169V0H101Z" />
<glyph unicode="&quot;" horiz-adv-x="371" d="M94 544L83 745H150L139 544H94ZM232 544L220 745H288L277 544H232Z" />
<glyph unicode="#" horiz-adv-x="766" d="M99 0L158 204H38V262H174L238 484H118V542H255L313 745H379L321 542H543L602 745H668L609 542H729V484H593L528 262H648V204H512L453 0H387L446 204H224L165 0H99ZM240 262H462L527 484H304L240 262Z" />
<glyph unicode="$" horiz-adv-x="643" d="M336 -12Q265 -12 209 15T115 86T61 181L119 202Q147 126 202 86T335 46Q386 46 424 63T485 111T507 184Q507 242 475 274T390 320L254 360Q171 384 132 437T92 559Q92 618 120 662T198 732T309 757Q374 757 425 733T512
669T563 581L506 560Q481 629 429 664T310 700Q266 700 231 683T176 635T156 562Q156 511 185 475T282 418L404 382Q484 358 527 309T571 187Q571 128 541 84T458 14T336 -12ZM301 -100V845H359V-100H301Z" />
<glyph unicode="%" horiz-adv-x="951" d="M131 0L744 745H823L210 0H131ZM242 376Q190 376 147 402T78 471T52 567Q52 619 78 662T147 731T242 757Q294 757 337 732T405 663T431 567Q431 514 406 471T337 402T242 376ZM242 434Q280 434 308 453T354 503T371 566Q371
601 354 631T309 680T242 700Q205 700 176 681T129 632T112 567Q112 533 129 503T175 453T242 434ZM710 -12Q658 -12 615 14T546 83T520 179Q520 231 546 274T615 343T710 369Q762 369 805 344T873 275T899 179Q899 126 874 83T805 14T710 -12ZM710 46Q748 46 776
65T822 115T839 178Q839 213 822 243T777 292T710 312Q673 312 644 293T597 244T580 179Q580 145 597 115T643 65T710 46Z" />
<glyph unicode="&amp;" horiz-adv-x="728" d="M257 -12Q200 -12 155 10T83 73T56 168Q56 213 72 247T114 310T168 360T223 400L263 427Q297 450 325 474T372 526T390 590Q390 636 360 666T285 696Q239 696 210 666T180 589Q180 557 194 528T231 474T275 426L690
0H602L225 382Q202 406 177 436T133 504T115 587Q115 637 137 675T198 735T285 757Q331 757 369 736T431 677T454 590Q454 539 431 501T373 433T305 381L266 355Q230 329 198 303T145 244T124 169Q124 113 161 81T258 49Q299 49 329 63T383 99T426 148T461 200L576
371H651L518 169Q502 144 479 113T426 54T354 7T257 -12Z" />
<glyph unicode="&apos;" horiz-adv-x="233" d="M94 544L83 745H150L139 544H94Z" />
<glyph unicode="(" horiz-adv-x="282" d="M204 -135Q128 -46 89 68T49 306Q49 434 89 546T204 745H262Q190 648 152 535T114 306Q114 192 152 79T262 -135H204Z" />
<glyph unicode=")" horiz-adv-x="282" d="M20 -135Q92 -35 130 78T168 306Q168 422 130 535T20 745H78Q154 658 193 546T233 306Q233 182 194 68T78 -135H20Z" />
<glyph unicode="*" horiz-adv-x="469" d="M143 391L94 426L184 546L53 590L71 648L204 604V745H265V604L397 648L416 590L285 546L375 426L326 391L234 510L143 391Z" />
<glyph unicode="+" horiz-adv-x="601" d="M271 0V221H51V281H271V500H331V281H551V221H331V0H271Z" />
<glyph unicode="," horiz-adv-x="259" d="M81 -126V-92Q106 -84 118 -62T131 0H101V100H168V23Q168 -40 146 -77T81 -126Z" />
<glyph unicode="-" horiz-adv-x="483" d="M74 237V295H409V237H74Z" />
<glyph unicode="." horiz-adv-x="274" d="M103 0V100H171V0H103Z" />
<glyph unicode="/" horiz-adv-x="413" d="M2 -120L340 705H411L73 -120H2Z" />
<glyph unicode="0" horiz-adv-x="723" d="M363 -12Q276 -12 211 36T109 172T72 373Q72 488 108 574T210 709T362 757Q448 757 513 709T614 575T651 373Q651 258 615 172T514 37T363 -12ZM363 50Q432 50 482 91T559 204T587 373Q587 470 560 542T482 655T362 696Q293
696 243 656T165 542T137 373Q137 278 164 205T243 91T363 50Z" />
<glyph unicode="1" horiz-adv-x="355" d="M180 0V688H40V745H245V0H180Z" />
<glyph unicode="2" horiz-adv-x="589" d="M57 0V40L266 270Q328 338 368 383T429 468T450 553Q450 623 409 661T294 700Q223 700 175 659T110 545L51 558Q65 621 99 665T183 733T294 757Q358 757 407 732T486 660T515 553Q515 508 496 466T440 378T348 273L152
58H531V0H57Z" />
<glyph unicode="3" horiz-adv-x="604" d="M294 -12Q234 -12 184 10T99 73T47 171L102 192Q122 125 171 86T293 46Q348 46 390 67T455 129T478 224Q478 281 454 319T388 377T294 397Q283 397 269 396T244 393L233 420L438 688H78V745H515V695L315 435L310 448Q374
449 426 421T510 343T542 224Q542 158 511 105T424 20T294 -12Z" />
<glyph unicode="4" horiz-adv-x="618" d="M429 0V176H45V229L431 745H489V231H575V176H489V0H429ZM98 208L90 231H429V686L453 680L98 208Z" />
<glyph unicode="5" horiz-adv-x="612" d="M303 -12Q243 -12 192 10T106 74T54 171L108 192Q128 123 180 85T303 46Q357 46 397 70T461 136T484 232Q484 285 460 326T396 391T304 415Q251 415 207 391T143 333L90 344L145 745H519V688H168L195 706L151 386L130
396Q160 436 207 455T307 475Q377 475 431 443T517 355T549 232Q549 162 518 107T431 20T303 -12Z" />
<glyph unicode="6" horiz-adv-x="592" d="M297 -12Q229 -12 176 19T91 106T60 234Q60 278 71 318T103 397T155 476L358 745H436L165 386L149 382Q168 413 193 429T248 453T305 460Q370 460 422 430T504 348T535 225Q535 157 504 104T419 19T297 -12ZM298 46Q347
46 386 69T447 132T470 223Q470 275 448 315T387 379T298 402Q249 402 210 379T148 316T126 223Q126 172 148 132T210 69T298 46Z" />
<glyph unicode="7" horiz-adv-x="533" d="M77 0L419 688H42V745H490V690L146 0H77Z" />
<glyph unicode="8" horiz-adv-x="617" d="M309 -12Q238 -12 183 17T96 98T64 215Q64 287 105 343T215 422L217 404Q164 427 135 471T105 568Q105 622 132 664T205 732T309 757Q367 757 412 733T484 666T511 568Q511 513 483 471T402 404V422Q471 401 512 344T554
215Q554 150 522 99T435 18T309 -12ZM309 46Q363 46 403 66T466 125T489 214Q489 264 466 302T403 361T309 382Q255 382 215 361T152 302T129 214Q129 163 151 126T214 67T309 46ZM309 440Q348 440 379 457T428 503T446 570Q446 609 428 637T379 683T309 700Q270
700 239 683T189 638T170 570Q170 532 188 503T238 457T309 440Z" />
<glyph unicode="9" horiz-adv-x="592" d="M157 0L427 359L443 364Q425 334 400 317T346 292T287 285Q223 285 171 315T88 398T57 521Q57 590 88 643T174 726T295 757Q364 757 417 726T501 639T532 512Q532 468 522 428T490 349T437 269L234 0H157ZM295 344Q345
344 383 367T444 430T467 522Q467 574 444 614T383 677T295 700Q245 700 207 677T146 614T123 522Q123 471 145 431T206 367T295 344Z" />
<glyph unicode=":" horiz-adv-x="274" d="M103 0V100H171V0H103ZM103 431V531H171V431H103Z" />
<glyph unicode=";" horiz-adv-x="294" d="M103 -126V-97Q129 -89 143 -65T159 0H123V100H191V23Q191 -40 169 -77T103 -126ZM123 431V531H191V431H123Z" />
<glyph unicode="&lt;" horiz-adv-x="601" d="M534 45L136 240V292L534 487V421L185 253V279L534 110V45Z" />
<glyph unicode="=" horiz-adv-x="601" d="M76 339V399H526V339H76ZM76 104V164H526V104H76Z" />
<glyph unicode="&gt;" horiz-adv-x="601" d="M68 45V110L416 279V253L68 421V487L465 292V240L68 45Z" />
<glyph unicode="?" horiz-adv-x="487" d="M164 211V218Q164 264 180 298T222 362T276 417Q315 454 346 493T378 585Q378 615 363 641T319 683T249 700Q189 700 148 664T93 563L35 575Q45 631 74 671T149 734T249 757Q305 757 349 733T418 670T443 584Q443 538
423 502T373 436T313 375Q279 340 253 304T226 218V211H164ZM163 0V100H231V0H163Z" />
<glyph unicode="@" horiz-adv-x="928" d="M483 -206Q396 -206 321 -175T190 -87T103 45T72 207Q72 293 103 367T191 498T322 585T483 616Q574 616 649 583T778 493T862 363T892 211Q892 146 872 99T817 26T735 0Q704 0 677 12T631 48T606 101L622 95Q606 63 583
42T530 11T465 0Q408 0 362 28T289 104T262 212Q262 272 289 320T362 396T465 425Q514 425 556 403T621 338L610 325V415H667V135Q667 98 685 78T737 58Q779 58 804 96T830 210Q830 284 805 347T733 458T623 532T483 559Q407 559 343 532T232 458T159 347T133 210Q133
135 158 71T231 -43T342 -120T486 -148Q532 -148 574 -138T651 -108L677 -158Q593 -206 483 -206ZM466 58Q507 58 538 78T587 133T605 213Q605 281 566 323T466 366Q426 366 394 347T343 293T324 212Q324 168 342 133T393 78T466 58Z" />
<glyph unicode="A" horiz-adv-x="648" d="M17 0L291 745H358L632 0H562L494 190H155L86 0H17ZM176 250H472L312 695H336L176 250Z" />
<glyph unicode="B" horiz-adv-x="694" d="M94 0V745H401Q462 745 507 721T578 655T604 558Q604 500 574 455T490 390V407Q534 393 566 365T616 297T634 213Q634 116 573 58T401 0H94ZM159 60H397Q476 60 522 101T569 212Q569 281 524 322T402 364H159V60ZM159
423H395Q460 423 499 460T539 557Q539 617 501 651T395 685H159V423Z" />
<glyph unicode="C" horiz-adv-x="785" d="M429 -12Q352 -12 287 16T174 97T99 219T72 373Q72 456 98 526T173 648T287 728T429 757Q504 757 564 730T665 661T724 574L663 547Q633 614 573 655T429 696Q344 696 278 655T174 542T137 373Q137 277 174 204T277 91T429
50Q512 50 572 90T663 198L724 171Q706 127 665 85T564 16T429 -12Z" />
<glyph unicode="D" horiz-adv-x="743" d="M94 0V745H335Q445 745 525 700T650 571T694 373Q694 260 650 176T526 46T335 0H94ZM159 60H334Q423 60 488 99T590 208T627 373Q627 468 591 538T488 646T334 685H159V60Z" />
<glyph unicode="E" horiz-adv-x="613" d="M94 0V745H564V685H159V404H544V344H159V60H564V0H94Z" />
<glyph unicode="F" horiz-adv-x="587" d="M94 0V745H549V685H159V404H514V344H159V0H94Z" />
<glyph unicode="G" horiz-adv-x="828" d="M431 -12Q352 -12 287 16T173 96T99 218T72 372Q72 456 98 526T173 648T287 728T431 757Q508 757 568 730T670 661T730 574L670 546Q640 615 579 655T431 696Q346 696 279 655T175 542T137 372Q137 276 174 203T278 90T431
50Q508 50 569 84T666 178T702 315V350L731 319H431V377H767V321Q767 251 742 191T671 85T565 14T431 -12Z" />
<glyph unicode="H" horiz-adv-x="737" d="M94 0V745H159V406H579V745H644V0H579V346H159V0H94Z" />
<glyph unicode="I" horiz-adv-x="252" d="M94 0V745H159V0H94Z" />
<glyph unicode="J" horiz-adv-x="382" d="M61 0V65H100Q157 65 190 100T224 200V745H289V198Q289 137 266 93T200 24T100 0H61Z" />
<glyph unicode="K" horiz-adv-x="653" d="M94 0V745H159V298L140 307L532 745H616L314 406L317 452L636 0H557L288 379L159 233V0H94Z" />
<glyph unicode="L" horiz-adv-x="532" d="M94 0V745H159V60H494V0H94Z" />
<glyph unicode="M" horiz-adv-x="827" d="M94 0V745H149L427 331H400L679 745H734V0H669V650L685 641L415 238H412L142 641L159 650V0H94Z" />
<glyph unicode="N" horiz-adv-x="737" d="M94 0V745H149L600 98H579V745H644V0H589L136 651H159V0H94Z" />
<glyph unicode="O" horiz-adv-x="881" d="M441 -12Q364 -12 297 16T180 96T101 218T72 373Q72 458 100 528T180 649T297 729T441 757Q517 757 584 729T701 650T781 528T810 373Q810 289 781 219T702 97T584 17T441 -12ZM441 50Q508 50 564 75T660 145T723 248T745
373Q745 438 723 496T661 600T565 670T441 696Q373 696 318 671T222 600T159 497T137 373Q137 307 159 249T221 145T318 75T441 50Z" />
<glyph unicode="P" horiz-adv-x="644" d="M94 0V745H344Q415 745 469 717T553 638T584 520Q584 453 554 403T470 324T344 295H159V0H94ZM159 355H346Q397 355 436 375T497 433T519 521Q519 571 497 607T436 664T346 685H159V355Z" />
<glyph unicode="Q" horiz-adv-x="881" d="M441 -12Q364 -12 297 16T180 96T101 218T72 373Q72 458 100 528T180 649T297 729T441 757Q517 757 584 729T701 650T781 528T810 373Q810 289 781 219T702 97T584 17T441 -12ZM441 50Q508 50 564 75T660 145T723 248T745
373Q745 438 723 496T661 600T565 670T441 696Q373 696 318 671T222 600T159 497T137 373Q137 307 159 249T221 145T318 75T441 50ZM664 -90L407 298H482L739 -90H664Z" />
<glyph unicode="R" horiz-adv-x="638" d="M94 0V745H344Q415 745 469 717T553 638T584 520Q584 440 541 384T424 306L600 0H523L338 326L392 295H159V0H94ZM159 355H346Q397 355 436 375T497 433T519 521Q519 571 497 607T436 664T346 685H159V355Z" />
<glyph unicode="S" horiz-adv-x="643" d="M336 -12Q265 -12 209 15T115 86T61 181L119 202Q147 126 202 86T335 46Q386 46 424 63T485 111T507 184Q507 242 475 274T390 320L254 360Q171 384 132 437T92 559Q92 618 120 662T198 732T309 757Q374 757 425 733T512
669T563 581L506 560Q481 629 429 664T310 700Q266 700 231 683T176 635T156 562Q156 511 185 475T282 418L404 382Q484 358 527 309T571 187Q571 128 541 84T458 14T336 -12Z" />
<glyph unicode="T" horiz-adv-x="513" d="M225 0V685H17V745H497V685H290V0H225Z" />
<glyph unicode="U" horiz-adv-x="695" d="M348 -12Q271 -12 213 21T123 112T90 247V745H155V245Q155 187 179 143T247 73T348 48Q405 48 448 73T516 142T540 245V745H605V247Q605 171 573 113T483 21T348 -12Z" />
<glyph unicode="V" horiz-adv-x="653" d="M294 0L17 745H86L336 59H318L567 745H637L360 0H294Z" />
<glyph unicode="W" horiz-adv-x="986" d="M235 0L17 745H84L280 61L258 62L460 745H527L728 62L706 61L902 745H970L751 0H685L482 688H505L302 0H235Z" />
<glyph unicode="X" horiz-adv-x="593" d="M17 0L258 381L26 745H102L305 424H288L491 745H566L334 381L577 0H501L288 338H305L92 0H17Z" />
<glyph unicode="Y" horiz-adv-x="624" d="M280 0V340L17 745H90L327 384H298L534 745H607L345 340V0H280Z" />
<glyph unicode="Z" horiz-adv-x="595" d="M28 0V42L472 685H54V745H558V703L115 60H568V0H28Z" />
<glyph unicode="[" horiz-adv-x="298" d="M88 -135V745H273V688H153V-77H273V-135H88Z" />
<glyph unicode="\" horiz-adv-x="413" d="M340 -120L2 705H73L411 -120H340Z" />
<glyph unicode="]" horiz-adv-x="298" d="M25 -135V-77H145V688H25V745H210V-135H25Z" />
<glyph unicode="^" horiz-adv-x="601" d="M106 427L274 745H327L495 427H426L285 699H318L175 427H106Z" />
<glyph unicode="_" horiz-adv-x="573" d="M74 -57V0H499V-57H74Z" />
<glyph unicode="`" horiz-adv-x="341" d="M214 640L103 790H185L275 640H214Z" />
<glyph unicode="a" horiz-adv-x="573" d="M235 -12Q185 -12 146 7T84 60T61 138Q61 177 78 211T133 269T232 304L447 340V284L248 251Q180 240 152 210T124 140Q124 97 156 70T239 43Q297 43 340 69T407 139T431 235V367Q431 420 393 453T294 486Q244 486 204
461T143 396L89 425Q104 457 135 484T207 527T294 543Q352 543 396 521T466 459T491 367V0H431V111L438 106Q425 74 395 48T325 5T235 -12Z" />
<glyph unicode="b" horiz-adv-x="671" d="M349 -12Q276 -12 219 23T133 121L143 135V0H83V757H143V397L133 416Q163 474 219 508T349 543Q424 543 483 507T576 408T610 266Q610 187 576 124T483 25T349 -12ZM347 48Q404 48 449 76T520 154T546 266Q546 328 520
377T449 454T347 483Q290 483 244 455T171 377T144 266Q144 204 171 155T244 77T347 48Z" />
<glyph unicode="c" horiz-adv-x="604" d="M325 -12Q249 -12 190 24T96 124T61 266Q61 346 95 408T189 507T325 543Q375 543 417 526T493 480T543 413L490 385Q466 431 423 458T325 485Q268 485 223 457T150 380T123 266Q123 202 150 153T222 75T325 47Q380 47
423 74T490 148L543 119Q526 82 493 53T418 6T325 -12Z" />
<glyph unicode="d" horiz-adv-x="671" d="M322 -12Q248 -12 189 24T95 124T61 266Q61 345 95 408T188 507T322 543Q395 543 452 509T538 416L528 397V757H588V0H528V135L538 121Q510 59 453 24T322 -12ZM324 48Q382 48 427 76T500 154T527 266Q527 328 500 377T428
454T324 483Q267 483 222 455T151 377T125 266Q125 204 151 155T222 77T324 48Z" />
<glyph unicode="e" horiz-adv-x="621" d="M326 -12Q251 -12 191 24T96 124T61 267Q61 346 95 408T187 507T317 543Q372 543 416 523T493 468T543 387T561 291Q561 281 560 270T557 247H96V302H523L496 281Q502 339 479 385T414 459T317 487Q263 487 218 459T147
381T123 266Q121 201 148 151T222 73T326 44Q384 44 427 71T497 145L548 118Q530 81 497 52T421 5T326 -12Z" />
<glyph unicode="f" horiz-adv-x="390" d="M138 0V474H30V531H138V582Q138 638 160 677T222 736T308 757Q319 757 330 756T350 752V698Q342 700 331 700T314 701Q262 701 230 672T198 582V531H330V474H198V0H138Z" />
<glyph unicode="g" horiz-adv-x="663" d="M331 -220Q278 -220 233 -203T155 -157T103 -91L157 -62Q179 -105 223 -133T330 -161Q380 -161 423 -142T493 -82T521 20V155L532 141Q504 79 447 44T320 8Q246 8 187 44T95 141T61 276Q61 350 94 410T186 507T320 543Q390
543 446 509T532 416L521 397V531H581V20Q581 -49 549 -103T461 -189T331 -220ZM322 68Q378 68 422 96T493 171T519 276Q519 333 493 380T423 455T322 483Q265 483 220 455T150 380T125 276Q125 219 150 172T219 96T322 68Z" />
<glyph unicode="h" horiz-adv-x="572" d="M83 0V757H143V424L128 428Q146 481 192 512T301 543Q356 543 401 518T473 449T500 347V0H440V330Q440 378 421 412T368 465T292 484Q247 484 214 463T162 405T143 320V0H83Z" />
<glyph unicode="i" horiz-adv-x="225" d="M83 0V531H143V0H83ZM83 635V745H143V635H83Z" />
<glyph unicode="j" horiz-adv-x="225" d="M-20 -220Q-30 -220 -41 -219T-60 -215V-160Q-41 -163 -21 -163Q26 -163 54 -136T83 -56V531H143V-56Q143 -109 122 -145T64 -201T-20 -220ZM83 635V745H143V635H83Z" />
<glyph unicode="k" horiz-adv-x="544" d="M83 0V757H143V216L112 219L426 531H508L294 317L528 0H453L231 298L271 297L127 149L143 190V0H83Z" />
<glyph unicode="l" horiz-adv-x="225" d="M83 0V757H143V0H83Z" />
<glyph unicode="m" horiz-adv-x="909" d="M83 0V531H143V424L132 439Q152 487 196 515T296 543Q358 543 409 508T480 413L461 412Q478 473 528 508T641 543Q694 543 738 518T810 449T838 347V0H778V330Q778 378 759 412T707 465T635 484Q592 484 560 463T509 405T490
320V0H430V330Q430 378 411 412T360 465T287 484Q244 484 212 463T161 405T143 320V0H83Z" />
<glyph unicode="n" horiz-adv-x="572" d="M83 0V531H143V424L128 428Q146 481 192 512T301 543Q356 543 401 518T473 449T500 347V0H440V330Q440 378 421 412T369 465T292 484Q247 484 213 463T161 405T143 320V0H83Z" />
<glyph unicode="o" horiz-adv-x="659" d="M330 -12Q254 -12 193 24T97 123T61 266Q61 345 96 408T192 507T330 543Q406 543 467 507T563 409T598 266Q598 186 562 123T466 24T330 -12ZM330 47Q387 47 433 75T507 154T534 266Q534 328 507 377T434 455T330 484Q272
484 226 456T152 378T125 266Q125 204 152 154T226 76T330 47Z" />
<glyph unicode="p" horiz-adv-x="671" d="M83 -200V531H143V397L133 416Q163 474 219 508T349 543Q424 543 483 507T576 408T610 265Q610 187 576 124T483 25T349 -12Q276 -12 219 23T133 121L143 135V-200H83ZM347 48Q404 48 449 76T520 154T546 266Q546 328
520 377T449 454T347 483Q290 483 244 455T171 377T144 266Q144 204 171 155T243 77T347 48Z" />
<glyph unicode="q" horiz-adv-x="671" d="M528 -200V135L538 121Q510 59 453 24T322 -12Q248 -12 189 24T95 124T61 266Q61 345 95 408T188 507T322 543Q395 543 452 509T538 416L528 397V531H588V-200H528ZM324 48Q382 48 427 76T500 154T527 266Q527 328 500
377T428 454T324 483Q267 483 222 455T151 377T125 266Q125 204 151 155T222 77T324 48Z" />
<glyph unicode="r" horiz-adv-x="339" d="M83 0V531H143V432L132 441Q149 486 190 512T289 538H323V478H282Q217 478 180 437T143 325V0H83Z" />
<glyph unicode="s" horiz-adv-x="508" d="M262 -12Q188 -12 132 25T50 126L102 150Q127 101 169 73T262 44Q314 44 349 69T385 137Q385 163 372 181T337 210T292 228L210 251Q141 270 109 307T76 394Q76 439 99 472T161 524T247 543Q313 543 367 509T443 417L389
392Q368 437 330 462T246 488Q198 488 168 463T138 398Q138 373 150 357T181 330T222 313L311 287Q376 269 411 230T447 138Q447 95 423 61T357 8T262 -12Z" />
<glyph unicode="t" horiz-adv-x="384" d="M276 -6Q210 -6 174 31T138 141V474H38V531H76Q106 531 122 549T138 598V655H198V531H314V474H198V141Q198 119 204 98T230 64T285 51Q293 51 304 52T323 54V0Q312 -3 298 -4T276 -6Z" />
<glyph unicode="u" horiz-adv-x="572" d="M271 -12Q217 -12 172 13T99 83T72 192V531H132V197Q132 150 151 117T204 65T280 47Q326 47 359 68T411 126T429 212V531H489V0H429V108L444 103Q426 51 380 20T271 -12Z" />
<glyph unicode="v" horiz-adv-x="518" d="M227 0L17 531H84L270 53H247L433 531H502L289 0H227Z" />
<glyph unicode="w" horiz-adv-x="783" d="M199 0L17 531H84L243 50H217L361 531H422L566 50H540L700 531H767L584 0H523L384 464H399L260 0H199Z" />
<glyph unicode="x" horiz-adv-x="481" d="M17 0L204 266L18 531H93L264 286H219L389 531H464L278 266L464 0H389L219 246H264L92 0H17Z" />
<glyph unicode="y" horiz-adv-x="533" d="M85 -220Q71 -220 55 -218T23 -210V-154Q35 -157 50 -159T79 -161Q128 -160 156 -137T207 -61L245 28V-28L20 531H86L279 49H255L449 531H516L268 -74Q254 -107 231 -141T173 -197T85 -220Z" />
<glyph unicode="z" horiz-adv-x="442" d="M28 0V48L358 503L372 474H46V531H418V484L88 28L73 58H420V0H28Z" />
<glyph unicode="{" horiz-adv-x="304" d="M248 -135Q189 -135 152 -98T114 1V200Q114 234 98 255T47 276H19V334H47Q82 334 98 355T114 411V609Q114 670 151 707T248 745H279V688H248Q216 688 198 666T179 610V413Q180 382 170 355T135 305Q159 285 169 256T179
198V0Q179 -33 197 -55T248 -77H279V-135H248Z" />
<glyph unicode="|" horiz-adv-x="285" d="M110 -190V845H175V-190H110Z" />
<glyph unicode="}" horiz-adv-x="304" d="M25 -135V-77H56Q89 -77 107 -55T125 0V198Q125 227 135 256T169 305Q145 328 135 355T125 413V610Q126 644 108 666T56 688H25V745H56Q116 745 153 708T190 609V411Q190 377 206 356T258 334H285V276H258Q223 276 207
255T190 200V1Q190 -60 153 -97T56 -135H25Z" />
<glyph unicode="~" horiz-adv-x="601" d="M397 212Q364 212 341 223T298 250T258 276T211 288Q183 288 164 272T139 216H84Q88 281 123 313T208 345Q241 345 264 334T307 307T347 281T394 269Q421 269 439 285T463 341H518Q514 277 481 245T397 212Z" />
<glyph unicode="&#xa0;" horiz-adv-x="165" />
<glyph unicode="&#xa1;" horiz-adv-x="269" d="M102 -214L106 320H163L167 -214H102ZM101 431V531H169V431H101Z" />
<glyph unicode="&#xa2;" horiz-adv-x="604" d="M325 96Q249 96 190 132T96 232T61 374Q61 453 95 515T189 614T325 651Q375 651 417 634T493 588T543 520L490 492Q466 539 423 565T325 592Q268 592 223 565T150 488T123 373Q123 309 150 260T222 182T325 154Q380
154 423 181T490 255L543 227Q526 190 493 160T418 113T325 96ZM292 0V745H350V0H292Z" />
<glyph unicode="&#xa3;" horiz-adv-x="646" d="M47 0V58H147V537Q147 603 175 652T254 729T371 757Q431 757 479 735T559 669T599 565L540 552Q531 623 486 661T371 700Q298 700 255 657T212 537V58H556V0H47ZM47 351V406H397V351H47Z" />
<glyph unicode="&#xa4;" horiz-adv-x="586" d="M101 37L61 77L136 152Q117 178 107 208T96 269Q96 300 106 330T136 387L61 462L101 502L176 427Q201 445 231 456T293 467Q324 467 354 457T411 427L486 502L526 462L451 387Q470 360 480 331T490 269Q490 237 480
208T451 152L526 77L486 37L411 112Q384 92 354 82T293 72Q265 72 234 81T176 112L101 37ZM293 134Q331 134 361 152T410 201T429 269Q429 307 411 337T362 386T293 405Q256 405 225 387T175 338T156 269Q156 232 175 202T225 153T293 134Z" />
<glyph unicode="&#xa5;" horiz-adv-x="624" d="M280 0V340L17 745H90L327 384H298L534 745H607L345 340V0H280ZM137 308V363H487V308H137ZM137 153V208H487V153H137Z" />
<glyph unicode="&#xa6;" horiz-adv-x="285" d="M110 428V845H175V428H110ZM110 -190V228H175V-190H110Z" />
<glyph unicode="&#xa7;" horiz-adv-x="538" d="M274 -97Q196 -97 136 -58T50 47L104 73Q130 19 176 -10T275 -40Q329 -40 366 -12T403 60Q403 87 390 105T354 137T305 157L218 182Q146 203 112 241T77 332Q77 378 101 413T166 469T257 489L256 446Q205 446 173
416T141 340Q141 314 153 295T186 264T230 245L324 218Q392 198 429 157T467 61Q467 16 443 -20T374 -76T274 -97ZM283 171V214Q338 214 375 244T413 323Q413 352 400 371T364 404T315 425L228 450Q156 471 122 509T87 600Q87 647 111 682T176 737T268 757Q336
757 392 721T472 625L417 599Q394 646 354 673T266 700Q215 700 183 673T151 604Q151 579 163 561T196 532T240 513L334 486Q402 467 439 426T477 329Q477 284 452 248T383 192T283 171Z" />
<glyph unicode="&#xa8;" horiz-adv-x="417" d="M103 640V728H188V640H103ZM268 640V728H353V640H268Z" />
<glyph unicode="&#xa9;" horiz-adv-x="895" d="M448 -12Q368 -12 298 17T175 100T93 223T63 373Q63 452 92 521T175 644T297 727T448 757Q528 757 597 727T720 644T802 522T832 373Q832 292 802 223T719 100T597 18T448 -12ZM448 47Q516 47 575 72T678 141T747
245T772 373Q772 440 748 499T679 603T575 673T448 698Q380 698 321 673T218 604T148 500T123 373Q123 305 148 246T217 142T321 72T448 47ZM453 163Q396 163 351 190T279 265T253 373Q253 434 279 481T350 555T453 582Q495 582 529 568T586 530T620 479L567 453Q554
484 525 505T453 527Q391 527 352 485T313 373Q313 304 352 261T453 218Q495 218 524 239T567 292L620 267Q610 240 587 217T529 178T453 163Z" />
<glyph unicode="&#xaa;" horiz-adv-x="456" d="M186 364Q132 364 97 393T61 470Q61 513 91 545T184 588L326 612V562L197 541Q156 534 139 516T122 472Q122 446 142 430T192 413Q229 413 257 429T300 472T315 533V628Q315 661 291 681T228 702Q195 702 169 686T130
641L79 668Q96 706 138 730T229 755Q293 755 333 720T373 628V372H317V446L326 443Q310 409 273 387T186 364Z" />
<glyph unicode="&#xab;" horiz-adv-x="506" d="M181 81L29 269L181 457H249L100 269L249 81H181ZM409 81L257 269L409 457H477L328 269L477 81H409Z" />
<glyph unicode="&#xac;" horiz-adv-x="601" d="M491 40V221H51V281H551V40H491Z" />
<glyph unicode="&#xad;" horiz-adv-x="483" d="M74 237V295H409V237H74Z" />
<glyph unicode="&#xae;" horiz-adv-x="639" d="M320 272Q249 272 191 306T98 399T63 528Q63 599 97 657T190 749T320 784Q373 784 419 764T501 709T556 628T576 528Q576 458 542 400T449 307T320 272ZM320 323Q377 323 423 350T497 424T525 528Q525 585 498 631T424
705T320 733Q262 733 216 706T142 632T114 528Q114 471 141 425T215 351T320 323ZM227 394V664H331Q372 664 398 642T425 578Q425 553 414 533T377 501L440 394H382L327 492H278V394H227ZM278 537H331Q351 537 362 549T374 578Q374 596 363 607T331 618H278V537Z"
/>
<glyph unicode="&#xaf;" horiz-adv-x="437" d="M103 660V715H363V660H103Z" />
<glyph unicode="&#xb0;" horiz-adv-x="461" d="M230 463Q189 463 156 482T103 534T83 610Q83 652 102 685T155 737T231 757Q273 757 306 738T358 685T378 609Q378 567 359 534T306 482T230 463ZM230 513Q268 513 297 539T327 609Q327 654 298 680T230 707Q192
707 163 681T134 609Q134 566 162 540T230 513Z" />
<glyph unicode="&#xb1;" horiz-adv-x="601" d="M271 145V331H51V391H271V575H331V391H551V331H331V145H271ZM51 0V60H551V0H51Z" />
<glyph unicode="&#xb2;" horiz-adv-x="428" d="M43 223V266L188 422Q230 468 256 498T295 552T308 606Q308 649 282 673T212 698Q167 698 136 673T94 600L39 615Q48 658 72 688T133 736T211 753Q258 753 293 735T349 684T370 609Q370 561 342 519T261 420L128
277H381V223H43Z" />
<glyph unicode="&#xb3;" horiz-adv-x="433" d="M213 215Q171 215 135 230T74 274T37 341L90 361Q104 319 136 295T213 270Q265 270 297 300T330 383Q330 436 297 464T213 493Q191 493 172 488L159 515L300 691H62V745H371V696L234 523L231 540Q277 540 313 520T370
465T392 383Q392 336 369 298T306 238T213 215Z" />
<glyph unicode="&#xb4;" horiz-adv-x="341" d="M103 640L193 790H275L164 640H103Z" />
<glyph unicode="&#xb5;" horiz-adv-x="572" d="M72 -140V531H132V197Q132 150 151 117T204 65T280 47Q326 47 359 68T411 126T429 212V531H489V0H429V108L439 93Q420 45 375 17T271 -12Q225 -12 184 7T116 61L132 79V-140H72Z" />
<glyph unicode="&#xb6;" horiz-adv-x="378" d="M203 -100V438Q158 438 124 458T69 513T48 592Q48 636 68 671T123 725T203 745H268V-100H203Z" />
<glyph unicode="&#xb7;" horiz-adv-x="274" d="M103 220V320H171V220H103Z" />
<glyph unicode="&#xb8;" horiz-adv-x="382" d="M203 -225Q175 -225 148 -215T103 -187L121 -144Q137 -160 157 -168T197 -177Q221 -177 235 -165T249 -134Q249 -108 224 -94T148 -75L173 10H221L207 -43Q254 -52 280 -76T306 -135Q306 -175 277 -200T203 -225Z" />
<glyph unicode="&#xb9;" horiz-adv-x="297" d="M123 223V691H25V745H185V223H123Z" />
<glyph unicode="&#xba;" horiz-adv-x="506" d="M254 364Q200 364 156 389T87 459T61 560Q61 616 86 660T156 729T254 755Q308 755 351 730T420 660T446 560Q446 503 420 459T351 390T254 364ZM254 420Q290 420 319 438T366 488T384 560Q384 600 367 631T320 681T254
700Q217 700 187 682T140 632T122 560Q122 521 139 489T187 439T254 420Z" />
<glyph unicode="&#xbb;" horiz-adv-x="506" d="M257 81L407 269L257 457H326L477 269L326 81H257ZM29 81L179 269L29 457H98L249 269L98 81H29Z" />
<glyph unicode="&#xbc;" horiz-adv-x="877" d="M104 328V694H25V745H163V328H104ZM122 0L568 745H635L189 0H122ZM723 0V95H520V144L721 418H779V144H835V95H779V0H723ZM564 123L555 144H723V370L740 365L564 123Z" />
<glyph unicode="&#xbd;" horiz-adv-x="844" d="M104 328V694H25V745H163V328H104ZM122 0L568 745H635L189 0H122ZM524 0V42L639 165Q672 200 692 223T721 264T731 304Q731 336 712 353T660 371Q628 371 605 353T573 299L521 315Q528 349 548 373T597 411T660 424Q717
424 753 392T790 308Q790 268 766 234T706 162L603 51H798V0H524Z" />
<glyph unicode="&#xbe;" horiz-adv-x="969" d="M180 321Q129 321 90 348T37 422L87 441Q98 409 122 391T180 373Q218 373 242 396T266 457Q266 496 242 517T180 539Q171 539 161 538T143 533L131 560L242 695H58V745H308V698L200 565L198 583Q253 582 289 548T325
458Q325 420 307 389T255 340T180 321ZM214 0L660 745H727L281 0H214ZM815 0V95H612V144L813 418H871V144H927V95H871V0H815ZM656 123L647 144H815V370L832 365L656 123Z" />
<glyph unicode="&#xbf;" horiz-adv-x="487" d="M238 -226Q182 -226 138 -202T69 -139T44 -53Q44 -6 64 30T114 96T174 157Q208 191 234 228T261 313V320H323V313Q323 268 307 233T266 170T211 115Q172 77 141 38T109 -54Q109 -83 124 -109T168 -152T238 -169Q298
-169 339 -132T394 -32L452 -44Q443 -99 413 -140T338 -203T238 -226ZM256 431V531H324V431H256Z" />
<glyph unicode="&#xc0;" horiz-adv-x="648" d="M17 0L291 745H358L632 0H562L494 190H155L86 0H17ZM176 250H472L312 695H336L176 250ZM294 854L183 1004H265L355 854H294Z" />
<glyph unicode="&#xc1;" horiz-adv-x="648" d="M17 0L291 745H358L632 0H562L494 190H155L86 0H17ZM176 250H472L312 695H336L176 250ZM294 854L384 1004H466L355 854H294Z" />
<glyph unicode="&#xc2;" horiz-adv-x="648" d="M17 0L291 745H358L632 0H562L494 190H155L86 0H17ZM176 250H472L312 695H336L176 250ZM170 854L293 1004H356L480 854H410L325 957L240 854H170Z" />
<glyph unicode="&#xc3;" horiz-adv-x="648" d="M17 0L291 745H358L632 0H562L494 190H155L86 0H17ZM176 250H472L312 695H336L176 250ZM383 854Q357 854 341 864T314 887T291 911T263 921Q246 921 236 907T225 858H174Q174 912 198 942T265 973Q290 973 305 963T332
940T355 916T384 906Q403 906 414 922T425 969H475Q475 918 451 886T383 854Z" />
<glyph unicode="&#xc4;" horiz-adv-x="648" d="M17 0L291 745H358L632 0H562L494 190H155L86 0H17ZM176 250H472L312 695H336L176 250ZM199 854V942H284V854H199ZM364 854V942H449V854H364Z" />
<glyph unicode="&#xc5;" horiz-adv-x="648" d="M17 0L291 745H358L632 0H562L494 190H155L86 0H17ZM176 250H472L312 695H336L176 250ZM324 834Q283 834 253 861T222 935Q222 981 252 1008T324 1036Q366 1036 396 1009T427 935Q427 888 397 861T324 834ZM324 879Q347
879 363 894T379 934Q379 960 363 975T324 990Q302 990 286 975T270 935Q270 909 286 894T324 879Z" />
<glyph unicode="&#xc6;" horiz-adv-x="986" d="M17 0L291 745H937V685H532V404H917V344H532V60H937V0H467V190H155L86 0H17ZM176 250H467V685H333L176 250Z" />
<glyph unicode="&#xc7;" horiz-adv-x="785" d="M429 -12Q352 -12 287 16T174 97T99 219T72 373Q72 456 98 526T173 648T287 728T429 757Q504 757 564 730T665 661T724 574L663 547Q633 614 573 655T429 696Q344 696 278 655T174 542T137 373Q137 277 174 204T277
91T429 50Q512 50 572 90T663 198L724 171Q706 127 665 85T564 16T429 -12ZM439 -225Q411 -225 384 -215T339 -187L357 -144Q373 -160 393 -168T433 -177Q457 -177 471 -165T485 -134Q485 -108 460 -94T384 -75L409 10H457L443 -43Q490 -52 516 -76T542 -135Q542
-175 513 -200T439 -225Z" />
<glyph unicode="&#xc8;" horiz-adv-x="613" d="M94 0V745H564V685H159V404H544V344H159V60H564V0H94ZM299 854L188 1004H270L360 854H299Z" />
<glyph unicode="&#xc9;" horiz-adv-x="613" d="M94 0V745H564V685H159V404H544V344H159V60H564V0H94ZM298 854L388 1004H470L359 854H298Z" />
<glyph unicode="&#xca;" horiz-adv-x="613" d="M94 0V745H564V685H159V404H544V344H159V60H564V0H94ZM174 854L297 1004H360L484 854H414L329 957L244 854H174Z" />
<glyph unicode="&#xcb;" horiz-adv-x="613" d="M94 0V745H564V685H159V404H544V344H159V60H564V0H94ZM204 854V942H289V854H204ZM369 854V942H454V854H369Z" />
<glyph unicode="&#xcc;" horiz-adv-x="252" d="M94 0V745H159V0H94ZM96 854L-15 1004H67L157 854H96Z" />
<glyph unicode="&#xcd;" horiz-adv-x="252" d="M94 0V745H159V0H94ZM96 854L186 1004H268L157 854H96Z" />
<glyph unicode="&#xce;" horiz-adv-x="252" d="M94 0V745H159V0H94ZM-28 854L95 1004H158L282 854H212L127 957L42 854H-28Z" />
<glyph unicode="&#xcf;" horiz-adv-x="252" d="M94 0V745H159V0H94ZM1 854V942H86V854H1ZM166 854V942H251V854H166Z" />
<glyph unicode="&#xd0;" horiz-adv-x="743" d="M29 344V402H324V344H29ZM94 0V745H335Q445 745 525 700T650 571T694 373Q694 260 650 176T526 46T335 0H94ZM159 60H334Q423 60 488 99T590 208T627 373Q627 468 591 538T488 646T334 685H159V60Z" />
<glyph unicode="&#xd1;" horiz-adv-x="737" d="M94 0V745H149L600 98H579V745H644V0H589L136 651H159V0H94ZM427 854Q401 854 385 864T358 887T335 911T307 921Q290 921 280 907T269 858H218Q218 912 242 942T309 973Q334 973 349 963T376 940T399 916T428 906Q447
906 458 922T469 969H519Q519 918 495 886T427 854Z" />
<glyph unicode="&#xd2;" horiz-adv-x="881" d="M441 -12Q364 -12 297 16T180 96T101 218T72 373Q72 458 100 528T180 649T297 729T441 757Q517 757 584 729T701 650T781 528T810 373Q810 289 781 219T702 97T584 17T441 -12ZM441 50Q508 50 564 75T660 145T723
248T745 373Q745 438 723 496T661 600T565 670T441 696Q373 696 318 671T222 600T159 497T137 373Q137 307 159 249T221 145T318 75T441 50ZM411 854L300 1004H382L472 854H411Z" />
<glyph unicode="&#xd3;" horiz-adv-x="881" d="M441 -12Q364 -12 297 16T180 96T101 218T72 373Q72 458 100 528T180 649T297 729T441 757Q517 757 584 729T701 650T781 528T810 373Q810 289 781 219T702 97T584 17T441 -12ZM441 50Q508 50 564 75T660 145T723
248T745 373Q745 438 723 496T661 600T565 670T441 696Q373 696 318 671T222 600T159 497T137 373Q137 307 159 249T221 145T318 75T441 50ZM410 854L500 1004H582L471 854H410Z" />
<glyph unicode="&#xd4;" horiz-adv-x="881" d="M441 -12Q364 -12 297 16T180 96T101 218T72 373Q72 458 100 528T180 649T297 729T441 757Q517 757 584 729T701 650T781 528T810 373Q810 289 781 219T702 97T584 17T441 -12ZM441 50Q508 50 564 75T660 145T723
248T745 373Q745 438 723 496T661 600T565 670T441 696Q373 696 318 671T222 600T159 497T137 373Q137 307 159 249T221 145T318 75T441 50ZM286 854L409 1004H472L596 854H526L441 957L356 854H286Z" />
<glyph unicode="&#xd5;" horiz-adv-x="881" d="M441 -12Q364 -12 297 16T180 96T101 218T72 373Q72 458 100 528T180 649T297 729T441 757Q517 757 584 729T701 650T781 528T810 373Q810 289 781 219T702 97T584 17T441 -12ZM441 50Q508 50 564 75T660 145T723
248T745 373Q745 438 723 496T661 600T565 670T441 696Q373 696 318 671T222 600T159 497T137 373Q137 307 159 249T221 145T318 75T441 50ZM499 854Q473 854 457 864T430 887T407 911T379 921Q362 921 352 907T341 858H290Q290 912 314 942T381 973Q406 973 421
963T448 940T471 916T500 906Q519 906 530 922T541 969H591Q591 918 567 886T499 854Z" />
<glyph unicode="&#xd6;" horiz-adv-x="881" d="M441 -12Q364 -12 297 16T180 96T101 218T72 373Q72 458 100 528T180 649T297 729T441 757Q517 757 584 729T701 650T781 528T810 373Q810 289 781 219T702 97T584 17T441 -12ZM441 50Q508 50 564 75T660 145T723
248T745 373Q745 438 723 496T661 600T565 670T441 696Q373 696 318 671T222 600T159 497T137 373Q137 307 159 249T221 145T318 75T441 50ZM316 854V942H401V854H316ZM481 854V942H566V854H481Z" />
<glyph unicode="&#xd7;" horiz-adv-x="601" d="M131 0L88 42L258 213L89 382L131 424L301 255L470 424L512 382L343 213L513 42L471 0L301 170L131 0Z" />
<glyph unicode="&#xd8;" horiz-adv-x="881" d="M94 0L704 745H788L178 0H94ZM441 -12Q364 -12 297 16T180 96T101 218T72 373Q72 458 100 528T180 649T297 729T441 757Q517 757 584 729T701 650T781 528T810 373Q810 289 781 219T702 97T584 17T441 -12ZM441 50Q508
50 564 75T660 145T723 248T745 373Q745 438 723 496T661 600T565 670T441 696Q373 696 318 671T222 600T159 497T137 373Q137 307 159 249T221 145T318 75T441 50Z" />
<glyph unicode="&#xd9;" horiz-adv-x="695" d="M348 -12Q271 -12 213 21T123 112T90 247V745H155V245Q155 187 179 143T247 73T348 48Q405 48 448 73T516 142T540 245V745H605V247Q605 171 573 113T483 21T348 -12ZM318 854L207 1004H289L379 854H318Z" />
<glyph unicode="&#xda;" horiz-adv-x="695" d="M348 -12Q271 -12 213 21T123 112T90 247V745H155V245Q155 187 179 143T247 73T348 48Q405 48 448 73T516 142T540 245V745H605V247Q605 171 573 113T483 21T348 -12ZM317 854L407 1004H489L378 854H317Z" />
<glyph unicode="&#xdb;" horiz-adv-x="695" d="M348 -12Q271 -12 213 21T123 112T90 247V745H155V245Q155 187 179 143T247 73T348 48Q405 48 448 73T516 142T540 245V745H605V247Q605 171 573 113T483 21T348 -12ZM193 854L316 1004H379L503 854H433L348 957L263
854H193Z" />
<glyph unicode="&#xdc;" horiz-adv-x="695" d="M348 -12Q271 -12 213 21T123 112T90 247V745H155V245Q155 187 179 143T247 73T348 48Q405 48 448 73T516 142T540 245V745H605V247Q605 171 573 113T483 21T348 -12ZM223 854V942H308V854H223ZM388 854V942H473V854H388Z" />
<glyph unicode="&#xdd;" horiz-adv-x="624" d="M280 0V340L17 745H90L327 384H298L534 745H607L345 340V0H280ZM282 854L372 1004H454L343 854H282Z" />
<glyph unicode="&#xde;" horiz-adv-x="635" d="M88 0V745H153V598H338Q409 598 463 570T547 490T578 372Q578 305 548 255T464 176T338 148H153V0H88ZM153 208H340Q391 208 430 228T491 286T513 373Q513 423 491 460T430 517T340 538H153V208Z" />
<glyph unicode="&#xdf;" horiz-adv-x="604" d="M94 -145V546Q94 611 122 658T198 731T307 757Q367 757 413 734T486 667T513 566Q513 499 480 454T388 388L384 407Q463 383 503 335T544 212Q544 148 515 101T434 27T313 0H249V58H313Q387 58 432 100T478 212Q478
281 432 323T310 366H249V424H303Q345 424 377 441T429 490T448 563Q448 603 430 634T380 682T306 700Q263 700 229 681T174 628T154 546V-145H94Z" />
<glyph unicode="&#xe0;" horiz-adv-x="573" d="M235 -12Q185 -12 146 7T84 60T61 138Q61 177 78 211T133 269T232 304L447 340V284L248 251Q180 240 152 210T124 140Q124 97 156 70T239 43Q297 43 340 69T407 139T431 235V367Q431 420 393 453T294 486Q244 486
204 461T143 396L89 425Q104 457 135 484T207 527T294 543Q352 543 396 521T466 459T491 367V0H431V111L438 106Q425 74 395 48T325 5T235 -12ZM264 640L153 790H235L325 640H264Z" />
<glyph unicode="&#xe1;" horiz-adv-x="573" d="M235 -12Q185 -12 146 7T84 60T61 138Q61 177 78 211T133 269T232 304L447 340V284L248 251Q180 240 152 210T124 140Q124 97 156 70T239 43Q297 43 340 69T407 139T431 235V367Q431 420 393 453T294 486Q244 486
204 461T143 396L89 425Q104 457 135 484T207 527T294 543Q352 543 396 521T466 459T491 367V0H431V111L438 106Q425 74 395 48T325 5T235 -12ZM263 640L353 790H435L324 640H263Z" />
<glyph unicode="&#xe2;" horiz-adv-x="573" d="M235 -12Q185 -12 146 7T84 60T61 138Q61 177 78 211T133 269T232 304L447 340V284L248 251Q180 240 152 210T124 140Q124 97 156 70T239 43Q297 43 340 69T407 139T431 235V367Q431 420 393 453T294 486Q244 486
204 461T143 396L89 425Q104 457 135 484T207 527T294 543Q352 543 396 521T466 459T491 367V0H431V111L438 106Q425 74 395 48T325 5T235 -12ZM139 640L262 790H325L449 640H379L294 743L209 640H139Z" />
<glyph unicode="&#xe3;" horiz-adv-x="573" d="M235 -12Q185 -12 146 7T84 60T61 138Q61 177 78 211T133 269T232 304L447 340V284L248 251Q180 240 152 210T124 140Q124 97 156 70T239 43Q297 43 340 69T407 139T431 235V367Q431 420 393 453T294 486Q244 486
204 461T143 396L89 425Q104 457 135 484T207 527T294 543Q352 543 396 521T466 459T491 367V0H431V111L438 106Q425 74 395 48T325 5T235 -12ZM352 640Q326 640 310 650T283 673T260 697T232 707Q215 707 205 693T194 644H143Q143 698 167 728T234 759Q259 759
274 749T301 726T324 702T353 692Q372 692 383 708T394 755H444Q444 704 420 672T352 640Z" />
<glyph unicode="&#xe4;" horiz-adv-x="573" d="M235 -12Q185 -12 146 7T84 60T61 138Q61 177 78 211T133 269T232 304L447 340V284L248 251Q180 240 152 210T124 140Q124 97 156 70T239 43Q297 43 340 69T407 139T431 235V367Q431 420 393 453T294 486Q244 486
204 461T143 396L89 425Q104 457 135 484T207 527T294 543Q352 543 396 521T466 459T491 367V0H431V111L438 106Q425 74 395 48T325 5T235 -12ZM169 640V728H254V640H169ZM334 640V728H419V640H334Z" />
<glyph unicode="&#xe5;" horiz-adv-x="573" d="M235 -12Q185 -12 146 7T84 60T61 138Q61 177 78 211T133 269T232 304L447 340V284L248 251Q180 240 152 210T124 140Q124 97 156 70T239 43Q297 43 340 69T407 139T431 235V367Q431 420 393 453T294 486Q244 486
204 461T143 396L89 425Q104 457 135 484T207 527T294 543Q352 543 396 521T466 459T491 367V0H431V111L438 106Q425 74 395 48T325 5T235 -12ZM293 620Q252 620 222 647T191 721Q191 767 221 794T293 822Q335 822 365 795T396 721Q396 674 366 647T293 620ZM293
665Q316 665 332 680T348 720Q348 746 332 761T293 776Q271 776 255 761T239 721Q239 695 255 680T293 665Z" />
<glyph unicode="&#xe6;" horiz-adv-x="993" d="M235 -12Q185 -12 146 7T84 60T61 138Q61 177 78 211T133 269T232 304L430 337V367Q430 420 393 453T294 486Q244 486 204 461T143 396L89 425Q104 457 135 484T207 527T294 543Q368 543 420 506T486 407L467 408Q499
470 557 506T689 543Q743 543 788 523T865 468T914 387T932 291Q932 281 932 270T929 247H494Q497 187 525 142T598 70T698 44Q756 44 799 71T868 145L919 118Q902 81 869 52T793 5T698 -12Q627 -12 570 21T477 112L491 126V0H430V127L439 109Q426 77 397 49T326
5T235 -12ZM239 43Q297 43 340 69T406 139T430 235V281L248 251Q180 240 152 210T124 140Q124 97 156 70T239 43ZM496 302H869Q869 356 845 397T780 463T689 487Q640 487 598 464T529 399T496 302Z" />
<glyph unicode="&#xe7;" horiz-adv-x="604" d="M325 -12Q249 -12 190 24T96 124T61 266Q61 346 95 408T189 507T325 543Q375 543 417 526T493 480T543 413L490 385Q466 431 423 458T325 485Q268 485 223 457T150 380T123 266Q123 202 150 153T222 75T325 47Q380
47 423 74T490 148L543 119Q526 82 493 53T418 6T325 -12ZM335 -225Q307 -225 280 -215T235 -187L253 -144Q269 -160 289 -168T329 -177Q353 -177 367 -165T381 -134Q381 -108 356 -94T280 -75L305 10H353L339 -43Q386 -52 412 -76T438 -135Q438 -175 409 -200T335
-225Z" />
<glyph unicode="&#xe8;" horiz-adv-x="621" d="M326 -12Q251 -12 191 24T96 124T61 267Q61 346 95 408T187 507T317 543Q372 543 416 523T493 468T543 387T561 291Q561 281 560 270T557 247H96V302H523L496 281Q502 339 479 385T414 459T317 487Q263 487 218 459T147
381T123 266Q121 201 148 151T222 73T326 44Q384 44 427 71T497 145L548 118Q530 81 497 52T421 5T326 -12ZM281 640L170 790H252L342 640H281Z" />
<glyph unicode="&#xe9;" horiz-adv-x="621" d="M326 -12Q251 -12 191 24T96 124T61 267Q61 346 95 408T187 507T317 543Q372 543 416 523T493 468T543 387T561 291Q561 281 560 270T557 247H96V302H523L496 281Q502 339 479 385T414 459T317 487Q263 487 218 459T147
381T123 266Q121 201 148 151T222 73T326 44Q384 44 427 71T497 145L548 118Q530 81 497 52T421 5T326 -12ZM281 640L371 790H453L342 640H281Z" />
<glyph unicode="&#xea;" horiz-adv-x="621" d="M326 -12Q251 -12 191 24T96 124T61 267Q61 346 95 408T187 507T317 543Q372 543 416 523T493 468T543 387T561 291Q561 281 560 270T557 247H96V302H523L496 281Q502 339 479 385T414 459T317 487Q263 487 218 459T147
381T123 266Q121 201 148 151T222 73T326 44Q384 44 427 71T497 145L548 118Q530 81 497 52T421 5T326 -12ZM157 640L280 790H343L467 640H397L312 743L227 640H157Z" />
<glyph unicode="&#xeb;" horiz-adv-x="621" d="M326 -12Q251 -12 191 24T96 124T61 267Q61 346 95 408T187 507T317 543Q372 543 416 523T493 468T543 387T561 291Q561 281 560 270T557 247H96V302H523L496 281Q502 339 479 385T414 459T317 487Q263 487 218 459T147
381T123 266Q121 201 148 151T222 73T326 44Q384 44 427 71T497 145L548 118Q530 81 497 52T421 5T326 -12ZM186 640V728H271V640H186ZM351 640V728H436V640H351Z" />
<glyph unicode="&#xec;" horiz-adv-x="192" d="M66 0V531H126V0H66ZM66 640L-45 790H37L127 640H66Z" />
<glyph unicode="&#xed;" horiz-adv-x="192" d="M66 0V531H126V0H66ZM321 640L411 790H493L382 640H321Z" />
<glyph unicode="&#xee;" horiz-adv-x="192" d="M66 0V531H126V0H66ZM-59 640L64 790H127L251 640H181L96 743L11 640H-59Z" />
<glyph unicode="&#xef;" horiz-adv-x="192" d="M66 0V531H126V0H66ZM-29 640V728H56V640H-29ZM136 640V728H221V640H136Z" />
<glyph unicode="&#xf0;" horiz-adv-x="660" d="M335 -12Q276 -12 226 9T139 67T82 154T61 262Q61 339 95 400T191 497T330 533Q370 533 411 521T488 481T548 401L528 371Q529 426 513 479T466 579T394 662T301 718T193 739Q167 739 140 735T84 720L69 775Q135
796 197 796Q276 796 340 768T452 692T533 582T582 449T599 308Q599 198 564 127T468 22T335 -12ZM330 47Q387 47 433 76T507 154T534 263Q534 322 508 370T436 446T330 474Q270 474 224 446T152 370T125 262Q125 201 153 153T227 76T330 47ZM247 588V639L534 742V690L247
588Z" />
<glyph unicode="&#xf1;" horiz-adv-x="572" d="M83 0V531H143V424L128 428Q146 481 192 512T301 543Q356 543 401 518T473 449T500 347V0H440V330Q440 378 421 412T369 465T292 484Q247 484 213 463T161 405T143 320V0H83ZM345 640Q319 640 303 650T276 673T253
697T225 707Q208 707 198 693T187 644H136Q136 698 160 728T227 759Q252 759 267 749T294 726T317 702T346 692Q365 692 376 708T387 755H437Q437 704 413 672T345 640Z" />
<glyph unicode="&#xf2;" horiz-adv-x="659" d="M330 -12Q254 -12 193 24T97 123T61 266Q61 345 96 408T192 507T330 543Q406 543 467 507T563 409T598 266Q598 186 562 123T466 24T330 -12ZM330 47Q387 47 433 75T507 154T534 266Q534 328 507 377T434 455T330
484Q272 484 226 456T152 378T125 266Q125 204 152 154T226 76T330 47ZM300 640L189 790H271L361 640H300Z" />
<glyph unicode="&#xf3;" horiz-adv-x="659" d="M330 -12Q254 -12 193 24T97 123T61 266Q61 345 96 408T192 507T330 543Q406 543 467 507T563 409T598 266Q598 186 562 123T466 24T330 -12ZM330 47Q387 47 433 75T507 154T534 266Q534 328 507 377T434 455T330
484Q272 484 226 456T152 378T125 266Q125 204 152 154T226 76T330 47ZM299 640L389 790H471L360 640H299Z" />
<glyph unicode="&#xf4;" horiz-adv-x="659" d="M330 -12Q254 -12 193 24T97 123T61 266Q61 345 96 408T192 507T330 543Q406 543 467 507T563 409T598 266Q598 186 562 123T466 24T330 -12ZM330 47Q387 47 433 75T507 154T534 266Q534 328 507 377T434 455T330
484Q272 484 226 456T152 378T125 266Q125 204 152 154T226 76T330 47ZM175 640L298 790H361L485 640H415L330 743L245 640H175Z" />
<glyph unicode="&#xf5;" horiz-adv-x="659" d="M330 -12Q254 -12 193 24T97 123T61 266Q61 345 96 408T192 507T330 543Q406 543 467 507T563 409T598 266Q598 186 562 123T466 24T330 -12ZM330 47Q387 47 433 75T507 154T534 266Q534 328 507 377T434 455T330
484Q272 484 226 456T152 378T125 266Q125 204 152 154T226 76T330 47ZM388 640Q362 640 346 650T319 673T296 697T268 707Q251 707 241 693T230 644H179Q179 698 203 728T270 759Q295 759 310 749T337 726T360 702T389 692Q408 692 419 708T430 755H480Q480 704
456 672T388 640Z" />
<glyph unicode="&#xf6;" horiz-adv-x="659" d="M330 -12Q254 -12 193 24T97 123T61 266Q61 345 96 408T192 507T330 543Q406 543 467 507T563 409T598 266Q598 186 562 123T466 24T330 -12ZM330 47Q387 47 433 75T507 154T534 266Q534 328 507 377T434 455T330
484Q272 484 226 456T152 378T125 266Q125 204 152 154T226 76T330 47ZM205 640V728H290V640H205ZM370 640V728H455V640H370Z" />
<glyph unicode="&#xf7;" horiz-adv-x="601" d="M51 221V281H551V221H51ZM267 0V91H335V0H267ZM267 410V500H335V410H267Z" />
<glyph unicode="&#xf8;" horiz-adv-x="659" d="M52 0L521 531H607L138 0H52ZM330 -12Q254 -12 193 24T97 123T61 266Q61 345 96 408T192 507T330 543Q406 543 467 507T563 409T598 266Q598 186 562 123T466 24T330 -12ZM330 47Q387 47 433 75T507 154T534 266Q534
328 507 377T434 455T330 484Q272 484 226 456T152 378T125 266Q125 204 152 154T226 76T330 47Z" />
<glyph unicode="&#xf9;" horiz-adv-x="572" d="M271 -12Q217 -12 172 13T99 83T72 192V531H132V197Q132 150 151 117T204 65T280 47Q326 47 359 68T411 126T429 212V531H489V0H429V108L444 103Q426 51 380 20T271 -12ZM256 640L145 790H227L317 640H256Z" />
<glyph unicode="&#xfa;" horiz-adv-x="572" d="M271 -12Q217 -12 172 13T99 83T72 192V531H132V197Q132 150 151 117T204 65T280 47Q326 47 359 68T411 126T429 212V531H489V0H429V108L444 103Q426 51 380 20T271 -12ZM256 640L346 790H428L317 640H256Z" />
<glyph unicode="&#xfb;" horiz-adv-x="572" d="M271 -12Q217 -12 172 13T99 83T72 192V531H132V197Q132 150 151 117T204 65T280 47Q326 47 359 68T411 126T429 212V531H489V0H429V108L444 103Q426 51 380 20T271 -12ZM132 640L255 790H318L442 640H372L287 743L202
640H132Z" />
<glyph unicode="&#xfc;" horiz-adv-x="572" d="M271 -12Q217 -12 172 13T99 83T72 192V531H132V197Q132 150 151 117T204 65T280 47Q326 47 359 68T411 126T429 212V531H489V0H429V108L444 103Q426 51 380 20T271 -12ZM161 640V728H246V640H161ZM326 640V728H411V640H326Z"
/>
<glyph unicode="&#xfd;" horiz-adv-x="533" d="M85 -220Q71 -220 55 -218T23 -210V-154Q35 -157 50 -159T79 -161Q128 -160 156 -137T207 -61L245 28V-28L20 531H86L279 49H255L449 531H516L268 -74Q254 -107 231 -141T173 -197T85 -220ZM236 640L326 790H408L297
640H236Z" />
<glyph unicode="&#xfe;" horiz-adv-x="671" d="M83 -200V745H143V397L133 416Q163 474 219 508T349 543Q424 543 483 507T576 408T610 266Q610 187 576 124T483 25T349 -12Q276 -12 219 23T133 121L143 135V-200H83ZM347 48Q404 48 449 76T520 154T546 266Q546
328 520 377T449 454T347 483Q290 483 244 455T171 377T144 266Q144 204 171 155T244 77T347 48Z" />
<glyph unicode="&#xff;" horiz-adv-x="533" d="M85 -220Q71 -220 55 -218T23 -210V-154Q35 -157 50 -159T79 -161Q128 -160 156 -137T207 -61L245 28V-28L20 531H86L279 49H255L449 531H516L268 -74Q254 -107 231 -141T173 -197T85 -220ZM142 640V728H227V640H142ZM307
640V728H392V640H307Z" />
<glyph unicode="&#x2013;" horiz-adv-x="558" d="M74 237V295H484V237H74Z" />
<glyph unicode="&#x2014;" horiz-adv-x="893" d="M74 237V295H819V237H74Z" />
<glyph unicode="&#x2018;" horiz-adv-x="259" d="M81 545V625Q81 676 104 711T168 757V724Q143 718 131 697T117 645H148V545H81Z" />
<glyph unicode="&#x2019;" horiz-adv-x="259" d="M81 533V566Q106 573 118 593T132 645H101V745H168V665Q168 614 145 579T81 533Z" />
<glyph unicode="&#x201a;" horiz-adv-x="259" d="M81 -112V-79Q106 -72 118 -52T132 0H101V100H168V20Q168 -31 145 -66T81 -112Z" />
<glyph unicode="&#x201c;" horiz-adv-x="399" d="M221 545V625Q221 676 244 711T308 757V724Q283 718 271 697T257 645H288V545H221ZM81 545V625Q81 676 104 711T168 757V724Q143 718 131 697T117 645H148V545H81Z" />
<glyph unicode="&#x201d;" horiz-adv-x="399" d="M221 533V566Q246 573 258 593T272 645H241V745H308V665Q308 614 285 579T221 533ZM81 533V566Q106 573 118 593T132 645H101V745H168V665Q168 614 145 579T81 533Z" />
<glyph unicode="&#x201e;" horiz-adv-x="399" d="M81 -112V-79Q106 -72 118 -52T132 0H101V100H168V20Q168 -31 145 -66T81 -112ZM221 -112V-79Q246 -72 258 -52T272 0H241V100H308V20Q308 -31 285 -66T221 -112Z" />
<glyph unicode="&#x2022;" horiz-adv-x="496" d="M251 121Q209 121 176 140T123 192T103 268Q103 308 122 340T175 392T251 411Q291 411 322 392T373 341T393 268Q393 226 374 193T323 140T251 121Z" />
<glyph unicode="&#x2039;" horiz-adv-x="278" d="M181 81L29 269L181 457H249L100 269L249 81H181Z" />
<glyph unicode="&#x203a;" horiz-adv-x="278" d="M29 81L179 269L29 457H98L249 269L98 81H29Z" />
</font>
</defs>
</svg>
